<?xml version="1.0" encoding="utf-8"?>
<!-- Generator: Adobe Illustrator 24.0.0, SVG Export Plug-In . SVG Version: 6.00 Build 0)  -->
<svg version="1.1" id="Capa_1" xmlns="http://www.w3.org/2000/svg" xmlns:xlink="http://www.w3.org/1999/xlink" x="0px" y="0px"
	 viewBox="0 0 478.1 128.3" style="enable-background:new 0 0 478.1 128.3;" xml:space="preserve">
<style type="text/css">
	.st0{fill:#FFFFFF;}
</style>
<g>
	<g>
		<path class="st0" d="M64.5,4.6C31.6,4.6,5,31.3,5,64.1c0,32.8,26.6,59.5,59.5,59.5c32.9,0,59.5-26.6,59.5-59.5
			C124,31.3,97.4,4.6,64.5,4.6 M64.6,120.5C33.3,120.5,8,95.2,8,64.1C8,32.9,33.3,7.6,64.6,7.6c30.9,0,56.1,24.7,56.6,55.6l0,0.9
			C121.2,95.2,95.9,120.5,64.6,120.5"/>
		<path class="st0" d="M16,53.6l-1-0.2l0.6-2.7l2.5,0.6c0.2,0.3,0.3,0.7,0.4,1.3c0.1,0.5,0.1,1.1,0,1.6c-0.1,0.7-0.4,1.2-0.8,1.6
			c-0.4,0.4-0.9,0.7-1.4,0.8c-0.6,0.1-1.2,0.1-1.8,0c-0.6-0.1-1.2-0.4-1.6-0.8c-0.4-0.4-0.7-0.9-0.9-1.4c-0.1-0.4-0.1-1,0-1.5
			c0.2-0.8,0.5-1.3,0.9-1.7c0.4-0.3,0.9-0.5,1.5-0.5l0,1.3c-0.3,0-0.6,0.1-0.8,0.3c-0.2,0.2-0.4,0.5-0.5,0.8c-0.1,0.5-0.1,1,0.2,1.4
			c0.3,0.4,0.8,0.7,1.4,0.8c0.7,0.2,1.3,0.1,1.8-0.1c0.5-0.3,0.7-0.6,0.8-1.2c0.1-0.3,0.1-0.5,0-0.8c-0.1-0.3-0.1-0.5-0.2-0.8
			l-0.8-0.2L16,53.6z"/>
		<polygon class="st0" points="25.9,35.8 20.9,31.9 21.8,30.9 25.8,34.2 27.9,31.7 28.7,32.4 		"/>
		<polygon class="st0" points="54.5,17.4 52.9,11.3 54.2,11 55.8,17.1 		"/>
		<path class="st0" d="M88.5,15.1l2,1.2c0.5,0.3,0.8,0.5,1,0.7c0.3,0.3,0.4,0.6,0.5,1c0.1,0.4,0.1,0.8,0,1.2
			c-0.1,0.4-0.3,0.9-0.6,1.4c-0.3,0.4-0.6,0.8-0.9,1c-0.4,0.3-0.8,0.5-1.2,0.6c-0.3,0.1-0.7,0.1-1,0c-0.3-0.1-0.6-0.2-1-0.5
			l-2.1-1.3L88.5,15.1z M89,16.7l-2.2,3.5l0.8,0.5c0.3,0.2,0.5,0.3,0.7,0.4c0.2,0.1,0.4,0.1,0.6,0c0.2,0,0.4-0.1,0.6-0.3
			c0.2-0.2,0.5-0.5,0.7-0.9c0.3-0.4,0.4-0.8,0.5-1c0.1-0.3,0.1-0.5,0-0.7c0-0.2-0.2-0.4-0.3-0.6c-0.1-0.1-0.4-0.3-0.9-0.6L89,16.7z"
			/>
		<path class="st0" d="M100.8,29.4l0.5,1.2c-0.7,0.3-1.3,0.4-1.8,0.3c-0.6-0.1-1.1-0.4-1.5-0.9c-0.5-0.6-0.8-1.3-0.7-2.1
			c0.1-0.8,0.5-1.5,1.3-2.1c0.8-0.7,1.6-1,2.4-1c0.8,0,1.5,0.4,2.1,1.1c0.5,0.6,0.7,1.2,0.7,1.9c0,0.4-0.2,0.8-0.5,1.2l-1.1-0.8
			c0.2-0.3,0.3-0.5,0.3-0.9c0-0.3-0.1-0.6-0.3-0.8c-0.3-0.4-0.7-0.6-1.1-0.6c-0.5,0-1,0.2-1.5,0.7c-0.6,0.5-1,1-1,1.4
			c-0.1,0.4,0,0.8,0.3,1.2c0.2,0.3,0.5,0.4,0.8,0.5C100,29.7,100.4,29.6,100.8,29.4"/>
		<path class="st0" d="M62.6,9.7l2.4-0.1c0.5,0,1,0,1.2,0.1c0.4,0.1,0.7,0.3,1,0.6c0.3,0.3,0.5,0.6,0.6,1c0.1,0.4,0.2,0.9,0.3,1.5
			c0,0.5,0,1-0.2,1.4c-0.1,0.5-0.4,0.8-0.6,1.1c-0.2,0.2-0.5,0.4-0.9,0.5c-0.3,0.1-0.7,0.2-1.1,0.2l-2.4,0.1L62.6,9.7z M63.9,10.8
			L64,15l1,0c0.4,0,0.6,0,0.8-0.1c0.2-0.1,0.4-0.2,0.5-0.3c0.1-0.1,0.3-0.3,0.3-0.6c0.1-0.3,0.1-0.7,0.1-1.2c0-0.5-0.1-0.9-0.2-1.1
			c-0.1-0.2-0.2-0.5-0.4-0.6c-0.2-0.1-0.4-0.2-0.6-0.3c-0.2,0-0.5,0-1.1,0L63.9,10.8z"/>
		<path class="st0" d="M73.6,16.7l1.6-6.1l2,0.5c0.8,0.2,1.3,0.4,1.5,0.5c0.3,0.2,0.6,0.4,0.7,0.8c0.2,0.4,0.2,0.8,0,1.3
			c-0.1,0.4-0.2,0.7-0.4,0.9c-0.2,0.2-0.4,0.4-0.7,0.5c-0.2,0.1-0.5,0.1-0.7,0.1c-0.3,0-0.8-0.1-1.3-0.2l-0.8-0.2L74.8,17L73.6,16.7
			z M76.1,12l-0.4,1.7l0.7,0.2c0.5,0.1,0.8,0.2,1,0.2c0.2,0,0.3-0.1,0.5-0.2c0.1-0.1,0.2-0.3,0.3-0.4c0.1-0.2,0.1-0.4-0.1-0.6
			c-0.1-0.2-0.2-0.3-0.4-0.4c-0.1-0.1-0.4-0.2-0.9-0.3L76.1,12z"/>
		<polygon class="st0" points="68.3,15.9 69.2,9.6 73.9,10.3 73.8,11.3 70.4,10.9 70.2,12.2 73.4,12.7 73.2,13.7 70,13.3 69.8,15 
			73.3,15.5 73.2,16.5 		"/>
		<polygon class="st0" points="56.8,16.8 56,10.5 57.3,10.4 60.4,14.2 59.9,10 61.1,9.9 61.8,16.2 60.5,16.3 57.5,12.5 58,16.6 		
			"/>
		<polygon class="st0" points="46.5,19.7 44.5,13.7 49,12.3 49.3,13.3 46,14.3 46.5,15.7 49.5,14.7 49.9,15.7 46.8,16.7 47.4,18.3 
			50.7,17.2 51.1,18.2 		"/>
		<polygon class="st0" points="39.6,23.1 36.4,17.6 40.5,15.2 41.1,16.2 38.1,17.9 38.8,19.1 41.5,17.5 42.1,18.4 39.3,20 
			40.2,21.5 43.3,19.7 43.8,20.6 		"/>
		<path class="st0" d="M34.7,26.5L31,21.3l2.2-1.6c0.5-0.4,1-0.6,1.3-0.7c0.3-0.1,0.6-0.1,1,0.1c0.3,0.1,0.6,0.3,0.8,0.7
			c0.3,0.4,0.4,0.8,0.4,1.2c-0.1,0.4-0.3,0.8-0.7,1.2c0.3,0,0.6,0,0.9,0c0.2,0,0.7,0.2,1.2,0.4l1.3,0.6L38.2,24l-1.6-0.6
			c-0.6-0.2-0.9-0.3-1.1-0.4c-0.2,0-0.3,0-0.5,0c-0.1,0-0.3,0.1-0.6,0.3l-0.2,0.1l1.5,2.1L34.7,26.5L34.7,26.5z M33.6,22.7l0.8-0.5
			c0.5-0.4,0.8-0.6,0.9-0.7c0.1-0.1,0.2-0.3,0.2-0.4c0-0.2-0.1-0.3-0.2-0.5c-0.1-0.2-0.3-0.3-0.4-0.3c-0.2,0-0.3,0-0.5,0.1
			c-0.1,0-0.4,0.2-0.8,0.5l-0.8,0.6L33.6,22.7z"/>
		<path class="st0" d="M26.3,25.7l1.8-1.8c0.4-0.4,0.6-0.6,0.9-0.7c0.2-0.1,0.4-0.2,0.7-0.3c0.3,0,0.5,0,0.7,0.1
			c0.3,0.1,0.5,0.2,0.7,0.4c0.2,0.2,0.3,0.5,0.4,0.8c0.1,0.3,0,0.6-0.1,0.9c0.4-0.2,0.7-0.3,1.1-0.2c0.3,0.1,0.6,0.2,0.9,0.5
			c0.2,0.2,0.4,0.5,0.5,0.7c0.1,0.3,0.1,0.6,0.1,0.9c0,0.3-0.2,0.5-0.4,0.8c-0.1,0.2-0.5,0.5-1.1,1.1l-1.6,1.5L26.3,25.7z
			 M27.9,25.6l1,1l0.6-0.6c0.4-0.3,0.6-0.6,0.7-0.7c0.1-0.2,0.2-0.3,0.2-0.5c0-0.2-0.1-0.3-0.2-0.5c-0.1-0.1-0.3-0.2-0.5-0.2
			c-0.2,0-0.3,0.1-0.5,0.2c-0.1,0.1-0.4,0.3-0.8,0.7L27.9,25.6z M29.7,27.4l1.2,1.2l0.9-0.8c0.3-0.3,0.5-0.5,0.6-0.6
			c0.1-0.2,0.2-0.3,0.2-0.5c0-0.2-0.1-0.4-0.2-0.5c-0.1-0.1-0.3-0.2-0.5-0.2c-0.2,0-0.3,0-0.5,0.1c-0.2,0.1-0.5,0.3-0.9,0.7
			L29.7,27.4z"/>
		<polygon class="st0" points="29.1,31.8 24,27.9 24.9,26.9 29.9,30.8 		"/>
		<path class="st0" d="M14.9,42.7l0.9-2.3c0.2-0.5,0.3-0.8,0.5-1c0.1-0.2,0.3-0.4,0.5-0.5c0.2-0.1,0.4-0.2,0.7-0.3
			c0.3,0,0.5,0,0.8,0.1c0.3,0.1,0.5,0.3,0.7,0.5c0.2,0.2,0.3,0.5,0.3,0.8c0.3-0.3,0.5-0.5,0.9-0.6c0.3-0.1,0.6-0.1,1,0.1
			c0.3,0.1,0.5,0.3,0.7,0.5c0.2,0.2,0.3,0.5,0.4,0.8c0.1,0.3,0.1,0.6,0,0.9c-0.1,0.2-0.2,0.7-0.5,1.5l-0.8,2L14.9,42.7z M16.4,41.9
			l1.4,0.5l0.3-0.8c0.2-0.5,0.3-0.8,0.3-0.9c0.1-0.2,0-0.4,0-0.6c-0.1-0.2-0.2-0.3-0.4-0.4c-0.2-0.1-0.4-0.1-0.5,0
			c-0.2,0-0.3,0.2-0.4,0.3c-0.1,0.1-0.2,0.5-0.4,1L16.4,41.9z M18.7,42.8l1.6,0.6l0.4-1.1c0.2-0.4,0.3-0.7,0.3-0.8
			c0-0.2,0-0.4-0.1-0.5c-0.1-0.2-0.2-0.3-0.4-0.4c-0.2-0.1-0.3-0.1-0.5,0c-0.2,0-0.3,0.1-0.4,0.3c-0.1,0.1-0.3,0.5-0.5,1L18.7,42.8z
			"/>
		<path class="st0" d="M15.6,49.9c-0.6-0.3-1-0.6-1.4-0.9c-0.2-0.3-0.4-0.6-0.6-0.9c-0.1-0.3-0.2-0.7-0.2-1c0-0.4,0.1-0.9,0.4-1.3
			c0.4-0.8,1-1.4,1.7-1.7c0.8-0.3,1.6-0.2,2.6,0.2c0.9,0.4,1.5,1,1.8,1.8c0.3,0.7,0.2,1.5-0.1,2.4c-0.4,0.9-1,1.4-1.8,1.7
			C17.3,50.4,16.5,50.3,15.6,49.9L15.6,49.9z M16.1,48.7c0.7,0.3,1.2,0.4,1.7,0.2c0.5-0.1,0.8-0.4,1-0.9c0.2-0.5,0.2-0.9,0-1.4
			c-0.2-0.4-0.6-0.8-1.3-1.1c-0.7-0.3-1.2-0.4-1.7-0.2c-0.5,0.1-0.8,0.5-1,0.9c-0.2,0.5-0.2,0.9,0,1.4C15,48,15.4,48.4,16.1,48.7"/>
		<polygon class="st0" points="90.5,23.5 94.4,18.5 98.2,21.4 97.5,22.2 94.8,20.1 93.9,21.2 96.5,23.2 95.8,24 93.3,22.1 
			92.2,23.4 95,25.6 94.4,26.4 		"/>
		<path class="st0" d="M112.5,38.1l1.2,2c0.2,0.5,0.4,0.8,0.5,1.1c0.1,0.4,0.1,0.7,0,1.1c-0.1,0.4-0.3,0.7-0.6,1
			c-0.3,0.3-0.7,0.6-1.2,0.9c-0.5,0.3-0.9,0.4-1.3,0.5c-0.5,0.1-0.9,0.1-1.3,0c-0.3-0.1-0.6-0.3-0.9-0.5c-0.2-0.2-0.4-0.5-0.7-0.9
			l-1.2-2.1L112.5,38.1z M112.2,39.7l-3.7,2.1l0.5,0.8c0.2,0.3,0.3,0.5,0.4,0.6c0.1,0.2,0.3,0.3,0.5,0.3c0.2,0.1,0.4,0.1,0.7,0
			c0.3-0.1,0.7-0.2,1.1-0.5c0.4-0.2,0.7-0.5,0.9-0.7c0.2-0.2,0.3-0.4,0.4-0.6c0.1-0.2,0.1-0.4,0-0.7c-0.1-0.2-0.2-0.5-0.5-1
			L112.2,39.7z"/>
		<polygon class="st0" points="103.9,35.9 109.1,32.7 109.8,33.6 107.8,37.6 111.3,35.5 112,36.4 106.7,39.5 106,38.6 108,34.7 
			104.5,36.7 		"/>
		<path class="st0" d="M105.2,28l0.8,1l-2.7,2.1c-0.4,0.3-0.7,0.6-0.8,0.7c-0.2,0.2-0.2,0.4-0.2,0.7c0,0.3,0.1,0.5,0.4,0.8
			c0.2,0.3,0.4,0.5,0.7,0.5c0.2,0,0.5,0,0.6-0.1c0.2-0.1,0.5-0.3,0.9-0.6l2.8-2.2l0.8,1l-2.6,2.1c-0.6,0.5-1,0.8-1.3,0.9
			c-0.3,0.1-0.6,0.2-0.9,0.2c-0.3,0-0.6-0.1-0.9-0.3c-0.3-0.2-0.6-0.4-0.9-0.8c-0.4-0.5-0.6-0.9-0.7-1.2c-0.1-0.3-0.1-0.6-0.1-0.9
			c0.1-0.3,0.2-0.5,0.3-0.7c0.2-0.3,0.6-0.7,1.2-1.1L105.2,28z"/>
		<polygon class="st0" points="110.1,48.6 116.2,46.5 116.6,47.7 113.4,51.5 117.5,50.1 117.9,51.3 111.8,53.4 111.4,52.1 
			114.5,48.4 110.6,49.7 		"/>
		<polygon class="st0" points="109.6,46.3 115.6,44.1 116,45.3 110,47.5 		"/>
		<path class="st0" d="M116.6,55l-0.1,0.8c-0.4,0-0.8-0.2-1-0.4c-0.3-0.2-0.4-0.5-0.5-0.9c-0.1-0.5,0-0.9,0.3-1.3
			c0.3-0.4,0.7-0.6,1.3-0.7c0.6-0.1,1.1,0,1.5,0.2c0.4,0.3,0.7,0.6,0.8,1.2c0.1,0.5,0,0.9-0.2,1.2c-0.1,0.2-0.3,0.4-0.6,0.5
			l-0.3-0.7c0.2-0.1,0.3-0.2,0.4-0.4c0.1-0.2,0.1-0.3,0.1-0.5c-0.1-0.3-0.2-0.5-0.4-0.6c-0.2-0.1-0.6-0.2-1-0.1
			c-0.5,0.1-0.8,0.2-1,0.4c-0.2,0.2-0.2,0.5-0.2,0.7c0,0.2,0.1,0.4,0.3,0.5C116.1,55,116.3,55,116.6,55"/>
		<path class="st0" d="M80.1,15.6l1-3l-1.1-0.4l0.2-0.6l2.9,1L83,13.3l-1.1-0.4l-1,3L80.1,15.6z M82.4,16.4l1.3-3.6l2.7,0.9
			l-0.2,0.6l-1.9-0.7l-0.3,0.8l1.8,0.6l-0.2,0.6l-1.8-0.6l-0.3,1l2,0.7l-0.2,0.6L82.4,16.4z"/>
		<path class="st0" d="M20.4,35c0.4,0.2,0.6,0.3,0.8,0.5c0.1,0.1,0.3,0.3,0.4,0.5c0.1,0.2,0.1,0.4,0.1,0.6c0,0.3,0,0.5-0.2,0.8
			c-0.2,0.5-0.5,0.9-1,1c-0.5,0.2-1,0.2-1.6-0.1c-0.6-0.2-1-0.5-1.1-1c-0.2-0.4-0.2-0.9,0-1.4c0.2-0.5,0.5-0.9,1-1.1
			C19.3,34.8,19.9,34.8,20.4,35 M20.2,35.8c-0.4-0.2-0.8-0.2-1-0.1c-0.3,0.1-0.5,0.3-0.6,0.6c-0.1,0.3-0.1,0.5,0,0.8
			c0.1,0.3,0.4,0.5,0.8,0.6c0.4,0.2,0.8,0.2,1,0.1c0.3-0.1,0.5-0.3,0.6-0.6c0.1-0.3,0.1-0.6,0-0.8C20.8,36.1,20.6,35.9,20.2,35.8"/>
		<g>
			<path class="st0" d="M44.7,29.1L44.7,29.1c0.7-0.6,1.7-0.7,2.1-0.2c0.5,0.5,0.3,1.4-0.3,2l0,0l-7.8,6.9v0
				c-0.7,0.6-1.7,0.7-2.2,0.2c-0.5-0.5-0.3-1.4,0.4-2c0,0,0,0,0,0h0L44.7,29.1L44.7,29.1z"/>
		</g>
		<g>
			<path class="st0" d="M85.8,29.1L85.8,29.1c-0.7-0.6-1.6-0.7-2.1-0.2c-0.5,0.5-0.3,1.4,0.3,2l0,0l7.8,6.9v0
				c0.7,0.6,1.7,0.7,2.2,0.2c0.5-0.5,0.3-1.4-0.4-2l0,0L85.8,29.1L85.8,29.1z"/>
		</g>
		<g>
			<path class="st0" d="M51.6,31.8l-1.2-2.2l-2.9,1.6c-2.5,0.1-2.9-2.2-1.9-3.5l2.9-1.6l-1.1-2.1l-4.9,2.6c-1,4,0.9,6.9,4.5,7.7
				L51.6,31.8z"/>
		</g>
		<g>
			<path class="st0" d="M79.1,31.8l1.2-2.2l2.9,1.6c2.5,0.1,2.8-2.2,1.9-3.5l-2.9-1.6l1.2-2.1l4.9,2.6c1,4-0.9,6.9-4.5,7.7
				L79.1,31.8z"/>
		</g>
		<g>
			<path class="st0" d="M37.9,42.8L36,41.1l2.2-2.4c0.7-2.3-1.5-3.3-3-2.6L33,38.4l-1.8-1.6l3.8-4c4.1,0,6.5,2.5,6.5,6.1L37.9,42.8z
				"/>
		</g>
		<g>
			<path class="st0" d="M91.9,42.8l1.9-1.7l-2.3-2.4c-0.7-2.3,1.5-3.3,3-2.6l2.3,2.4l1.8-1.6l-3.7-4c-4.2,0-6.6,2.5-6.6,6.1
				L91.9,42.8z"/>
		</g>
		<g>
			<path class="st0" d="M73.3,27c-2.5-14.8-22.9-4.6-11.2-2.8c0,0-0.1,0-0.1,0.1c0.1-0.1,0.4-0.2,0.7-0.4c0.2-0.1,0.5-0.2,0.8-0.4
				c0.3-0.2,0.9-0.4,1.2-0.5c0.8-0.2,1.2,0,1.7-0.1c0.5,0,0.9,0,0.9,0L62,24.2c-4.1,3.5-4.6,4.8-5.6,8.5c8.6,3.7,12.6,1.6,17,0
				L73.3,27z M59,28c0.4-0.1,1.3-0.5,1.9-0.6c0.3-0.1,0.6-0.1,1-0.2c0.4-0.1,0.9-0.2,1.3-0.2c0.9-0.1,1.4-0.2,2.4-0.2
				c1.9,0.1,3.6,0.7,4.9,0.9c0.7,0.1,1.4,0.5,1.8,0.5c0.4,0.1,0.6,0.2,0.6,0.2s-0.9-0.2-2.3-0.4c-1.4-0.2-3.2-0.5-5-0.6
				c-0.9,0-1.8-0.1-2.7,0c-0.4,0-0.8,0-1.2,0.1c-0.4,0.1-0.8,0.1-1.1,0.2C60,27.8,59.4,28,59,28c-0.4,0.1-0.6,0.2-0.6,0.2
				S58.7,28.1,59,28 M70.9,29.1c-0.7-0.1-1.6-0.3-2.5-0.4c-0.9-0.1-1.9-0.2-2.8-0.3c-0.5,0-1,0-1.5,0c-0.5,0-0.9,0-1.4,0.1
				c-0.9,0.1-1.7,0.3-2.5,0.4c-0.7,0.1-1.3,0.3-1.7,0.4c-0.4,0.1-0.7,0.1-0.7,0.1l0,0c0,0,0.2-0.1,0.6-0.2c0.4-0.1,1-0.3,1.7-0.5
				c0.7-0.1,1.7-0.4,2.6-0.4c1.1-0.2,1.9-0.3,2.8-0.3c1,0,1.9,0.4,2.8,0.5c0.9,0.1,1.8,0.3,2.5,0.4c1.4,0.2,1.9,0.5,2,0.5l0.2,0.1
				C73.1,29.5,72.3,29.3,70.9,29.1"/>
		</g>
		<path class="st0" d="M108.3,90.7l-2.2,2.5c-0.5,0.2-0.8,0.2-1.2,0.2c0.5-0.6,0.6-1.5,0.1-1.9c-0.5-0.4-1.3-0.3-1.9,0.2
			c-0.1-0.4-0.1-0.7,0-1.1l2.1-2.6l-1.9-1.5l-3.6,4.2c0.2,1.3,0.6,2.3,1.2,3.2l-3.2,3.3c-0.9-0.6-1.9-1-2.8-0.8l-0.2,0.2l-8.4,6.2
			l-0.2,0.2c-0.3,0.8-0.2,1.8,0.2,2.7l-4.6,2c-0.5-0.8-1.2-1.5-2-1.8l-0.3,0l-10.6,1.8l-0.3,0c-0.9,0.7-1.3,1.9-1.3,3.3l-4.6,0
			c-0.1-1.2-0.4-2.3-1.3-3l-0.3-0.1l-10.6-1.8l-0.3,0c-0.6,0.2-1.1,0.7-1.6,1.2l-3.8-1.6c0.4-0.9,0.5-1.9,0.2-2.7l-0.2-0.2l-8.4-6.2
			l-0.3-0.2c-0.9-0.1-1.9,0.2-2.8,0.8L30,94c0.6-0.9,1.1-2,1.3-3.3l-3.6-4.2l-1.9,1.5l2.1,2.6c0.1,0.4,0.1,0.9,0,1.3l-0.1-0.1l0,0h0
			c-0.6-0.6-1.6-0.8-2.1-0.3c-0.5,0.4-0.5,1.3,0.1,1.9c-0.3,0-0.6-0.1-0.9-0.2l-2.2-2.5l-2,1.6l3.5,4c1.4,0.2,2.7,0,3.8-0.5l3.1,3.2
			c-1,1.4-1.6,3-1.1,4.2l0.3,0.2l8.4,6.2l0.3,0.2c1.4,0.2,3-0.7,4.1-2l4,1.8c-0.5,1.9-0.3,4.1,1,5.1l0.3,0.1l10.6,1.8l0.3,0.1
			c1.2-0.4,2.1-1.6,2.5-3.1l5.4,0c0.5,1.3,1.3,2.4,2.4,2.8l0.4-0.1l10.6-1.8l0.4-0.1c1.1-0.9,1.4-2.7,1.1-4.4l5.1-2.2
			c1.2,1.3,2.7,2.1,4.1,2l0.3-0.2l8.4-6.2l0.3-0.2c0.5-1.2,0-2.8-1.1-4.2l3.2-3.3c1.1,0.6,2.5,0.8,4,0.6l3.5-4L108.3,90.7z
			 M38.8,106.6l-0.2-0.1l-5-3.7l-0.2-0.1c-0.3-0.5-0.2-1,0-1.5c0.6,0.4,1.3,0.4,1.8,0c0.5-0.4,0.4-1.1,0.1-1.7
			c0.3-0.1,0.6-0.1,0.9-0.1l0.2,0.1l5,3.7l0.1,0.1c0.2,0.3,0.2,0.7,0.1,1.1c-0.7-0.1-1.4,0.1-1.7,0.6c-0.2,0.4-0.1,0.9,0.3,1.3
			C39.8,106.5,39.3,106.7,38.8,106.6z M57.5,113.8l-6.3-1l-0.2,0c-0.6-0.4-0.8-1.2-0.8-1.9l0.3,0.1l0,0c0.9,0.4,1.8,0.1,2.1-0.5
			c0.3-0.6-0.1-1.4-0.9-1.8c0,0,0,0,0.1,0l0.2,0l6.2,1.1l0.2,0c0.4,0.3,0.6,0.7,0.7,1.1l-0.1,0h0c-0.9,0-1.7,0.5-1.7,1.2
			c0,0.5,0.5,1,1.2,1.2c-0.2,0.3-0.5,0.5-0.8,0.5L57.5,113.8z M78.5,112.5l-0.2,0l-6.2,1.1l-0.2,0c-0.3-0.1-0.6-0.3-0.8-0.5
			c0.3-0.2,0.5-0.5,0.5-0.8c0-0.6-0.5-1-1.2-1.2c0-0.6,0.3-1.2,0.8-1.5l0.2,0l6.3-1.1l0.2,0c0.3,0.1,0.6,0.3,0.9,0.5
			c-0.5,0.4-0.8,1-0.5,1.5c0.2,0.4,0.7,0.6,1.2,0.6C79.2,111.7,78.9,112.2,78.5,112.5z M97.2,102.7l-0.2,0.1l-5,3.7l-0.2,0.1
			c-0.5,0.1-1-0.1-1.5-0.3c0.4-0.4,0.5-0.9,0.3-1.3c-0.3-0.5-1-0.7-1.7-0.6c-0.1-0.4,0-0.7,0.1-1.1l0.2-0.1l5-3.7l0.1-0.1
			c0.3-0.1,0.6,0,0.9,0.1c-0.4,0.6-0.4,1.3,0.1,1.7c0.4,0.4,1.1,0.3,1.7,0C97.4,101.7,97.5,102.2,97.2,102.7z"/>
		<path class="st0" d="M64.6,50.8c0.1,0.2,0.4,0.8,0.9,1.3l0.6,0.6c0.3-0.1,0.9-0.3,1.1-0.6c0.2-0.2,0.6-1.1,0.8-1.7
			c-0.4,0-0.8-0.1-1.2-0.2c-0.4-0.1-0.7-0.5-0.9-0.9c-0.1,0.3-0.2,0.5-0.3,0.7C65.3,50.4,64.9,50.6,64.6,50.8"/>
		<path class="st0" d="M59.9,50.5c0.2,0.2,0.5,0.5,0.8,0.9c0.4,0.5,0.9,0.8,1.1,0.8c0.2-0.1,0.6-0.4,1-0.7c0.3-0.2,0.6-0.7,0.7-0.9
			c-0.3-0.2-0.6-0.4-0.9-0.7c-0.1-0.1-0.1-0.2-0.2-0.3c-0.2,0.2-0.6,0.4-1.3,0.6C60.5,50.3,60.1,50.4,59.9,50.5"/>
		<path class="st0" d="M47,48.7c-0.1,0-0.3-0.1-0.4-0.2c-0.8,0.2-5.1,1-6.5,1c-0.3,0-0.5,0-0.7,0c-0.2,0.1-0.4,0.3-0.3,0.4
			c0,0.1,0.1,0.2,0.4,0.3c1,0.4,3.4,0.3,3.4,0.3c0,0,1.4-0.1,2.5-0.2c0.9-0.1,1.9-0.3,2.4-0.5c0,0,0,0,0-0.1c0-0.1,0-0.3,0.1-0.4
			c0.1-0.1,0.4-0.3,0.8-0.4C48,48.8,47.4,48.7,47,48.7"/>
		<path class="st0" d="M37.1,47.9c-0.3,0-0.6,0-0.9,0c0.1,0.1,0.3,0.2,0.7,0.3c0.4,0.1,0.8,0.3,1.1,0.4c0.7,0.3,1.1,0.4,2.2,0.4
			c1.1,0,4-0.5,5.6-0.8c0,0,0,0,0,0c-0.5,0-1.1-0.1-1.6-0.3c-0.2-0.1-0.6-0.3-0.5-0.6c0-0.1,0.1-0.2,0.3-0.3c-0.3,0-0.5-0.1-0.6-0.3
			l-2.3,0.5C40.9,47.3,39.2,47.7,37.1,47.9"/>
		<path class="st0" d="M71.1,59.6c-1.2-0.3-2.1-1-2.7-1.5c0,0,0,0,0,0c0.1,0.4,0.1,0.8,0,1.2l4.9,3.6c0.8,0.4,1,0.4,1,0.4
			c0.1,0,1.7,0.3,2.2-1.2c0.5-1.6-1.4-2.7-1.4-2.7l-1-0.3c-0.5,0.3-1.3,0.6-2.2,0.6C71.6,59.7,71.4,59.6,71.1,59.6"/>
		<path class="st0" d="M65.8,54.6c0.5,0.4,0.8,0.6,0.8,0.6c0.1-0.1,0.5-0.5,0.7-1.5c0.1-0.6,0.1-1,0.1-1.4c-0.4,0.4-1.4,0.7-1.4,0.7
			l-0.1,0l-0.7-0.7c-0.6-0.6-0.9-1.2-1-1.4l0,0c0.1,0.3,0.2,0.8,0.3,1.3C64.4,52.3,64.9,53.8,65.8,54.6"/>
		<path class="st0" d="M69.4,56.4c-0.6-0.2-1.2-0.6-1.7-1c0.1,0.5,0.3,1.3,0.5,1.9l0,0c0,0,1.3,1.5,3,1.9c1.2,0.3,2.3-0.2,2.9-0.5
			c-0.5-0.2-1.2-0.5-1.5-0.8c-0.5-0.4-0.8-1.1-0.9-1.3c-0.2,0-0.4,0-0.7,0C70.4,56.6,69.8,56.5,69.4,56.4"/>
		<path class="st0" d="M37.9,56.9c0.2,0.1,0.6,0.4,1.8,0.4c0.6,0,1.9-0.3,2-0.3c0,0,0.5-0.2,1.2-0.4c0.6-0.2,0.8-0.2,1.1-0.4
			l0.3-0.1l2.8-1c-0.5,0-1,0-1.4-0.1c-0.4-0.1-0.7-0.2-0.7-0.4c-0.1-0.2,0.1-0.4,0.2-0.6c0.1-0.1,0.4-0.3,0.7-0.4
			c-0.2,0-0.3,0-0.5,0c-0.1,0-0.2,0-0.4,0c-0.4,0.2-2.1,0.9-2.9,1.2c-0.7,0.3-2.1,0.8-2.7,1C38.7,56.2,38,56.7,37.9,56.9"/>
		<path class="st0" d="M48.5,50.9c0-0.1-0.1-0.1-0.1-0.2h-0.7c-0.2,0-0.3-0.1-0.3-0.2c0-0.1,0-0.1,0.1-0.2c-0.6,0.1-1.3,0.3-2,0.4
			c-1.2,0.1-2.6,0.2-2.6,0.2c0,0-0.2,0-0.4,0l0,0.1c-0.3,0.1-0.7,0.3-0.7,0.4c0,0,0.1,0.2,0.8,0.3c1.9,0.3,2.9,0.2,3.8,0
			c0.1,0,0.3,0,0.4-0.1c1-0.1,2.4-0.4,2.5-0.4c0,0,0-0.1,0.1-0.1c-0.2,0-0.4,0-0.5,0C48.7,51.1,48.6,51,48.5,50.9"/>
		<path class="st0" d="M63.1,71.1c-0.9-0.4-1.4-1.3-1.6-1.8c-0.1,0.1-0.3,0.3-0.4,0.4c0,0.1-0.2,1-0.4,2.5c0,0.2-0.1,0.4-0.2,0.6
			l0.1,0c0,0-0.1,1.2,0.2,1.9c0.1,0.2,0.2,0.4,0.2,0.5c0.1,0,0.1,0,0.2,0c0.3,0,0.8-0.7,1.2-1.3c0,0,0-0.2,0.1-0.4v-0.2l0.1,0
			c0.1-0.3,0.2-0.7,0.3-0.9C63,72,63.1,71.4,63.1,71.1"/>
		<path class="st0" d="M34.7,53.9c0.8,0,2.6-0.6,2.6-0.6l0.1,0.2l0-0.2c0,0,1.3-0.4,2.2-0.7c0.6-0.3,1.5-0.6,2-0.8
			c-0.1-0.1-0.2-0.2-0.2-0.3c0-0.2,0.1-0.4,0.3-0.5c-0.8,0-1.8-0.1-2.4-0.3c0,0,0,0-0.1,0c-0.2,0.1-1.9,0.9-2.8,1.2
			c-1,0.3-2.5,0.8-2.6,0.8c-0.6,0.4-1.1,0.9-1.1,1.1C32.7,53.6,32.8,53.9,34.7,53.9"/>
		<path class="st0" d="M36,65.8L36,65.8c0.2-0.3,1.2-1.1,2.4-2.1c1.2-1,2.6-2.1,3-2.5c0.5-0.5,1.1-0.9,1.5-1.2c-0.4,0-0.8,0-1.1-0.1
			c-0.2-0.1-0.3-0.2-0.3-0.3c0-0.2,0.1-0.4,0.4-0.6c-0.4,0-0.7,0-0.8,0c-0.1,0-0.3,0-0.6,0c-0.3,0.2-6.1,5.4-6.8,5.8
			c-0.6,0.4-2.2,1.9-2.4,2.1c-0.3,0.4-0.3,0.6-0.3,0.6C30.6,68.9,33.8,67.4,36,65.8"/>
		<path class="st0" d="M56.7,56c0.4,0.1,1.1,0.2,1.7,0c0.9-0.2,2.2-1,2.5-1.3c0,0-0.1-0.1-0.1-0.1c-0.5-0.9-0.3-2.6-0.3-2.8
			c-0.1-0.1-0.1-0.1-0.2-0.2c-0.3-0.4-0.6-0.7-0.8-0.8c0,0.1,0,0.2,0,0.3c-0.3,0.7-1.1,2.2-1.9,3.5l0.2,0.1c0,0-0.2,0.4-0.7,0.9
			C56.9,55.8,56.8,55.9,56.7,56"/>
		<path class="st0" d="M36.3,55.5c0,0,1.3,0.2,3.4-0.4l1.1-0.3c0.5-0.2,1-0.3,1.3-0.5c0.5-0.2,1.5-0.6,2.2-0.9c-0.1,0-0.1,0-0.2,0
			c-0.4-0.1-0.8-0.3-0.8-0.7c0-0.2,0.1-0.4,0.3-0.5c-0.3,0-0.7-0.1-1.1-0.1c-0.2,0-0.3-0.1-0.5-0.1c-0.3,0.1-1.6,0.6-2.4,1
			c-0.9,0.4-2.2,0.7-2.3,0.8c-0.8,0.3-1.9,0.8-2,1.2c0,0.1,0,0.2,0,0.2C35.6,55.4,36.1,55.5,36.3,55.5"/>
		<path class="st0" d="M73.1,63.3l-4.8-3.5c0,0.2-0.1,0.4-0.2,0.6l2,4.8c0.2,0.5,0.9,1,1.1,1.1l0,0.1c1.5,0.6,3.5-0.7,3.2-2.6l0,0
			C74.2,63.8,73.9,63.7,73.1,63.3"/>
		<path class="st0" d="M44.7,64.5c0,0,0.1-0.1,0.2-0.1l0,0l4.8-3.9c0,0-0.1-0.1-0.1-0.1c-0.2-0.3-0.1-0.6,0-0.9
			c-0.2,0-0.4,0-0.6-0.1c-0.1,0-0.1-0.1-0.2-0.1c-1.1,0.9-8.1,6.7-8.7,7.2c-0.5,0.6-0.5,0.8-0.5,0.8C39,68.4,43.7,65.7,44.7,64.5"/>
		<path class="st0" d="M69.7,65.3l-1.8-4.4c-0.4,0.6-0.8,0.8-0.8,0.8l-0.1,0l-0.1,0c-0.1,0-1-0.4-1.5-0.8l1.3,7.8
			c0.1,0.1,0.9,1.6,2.5,1.4c1.7-0.2,2-1.8,2-1.9l0.1,0c0-0.1,0-0.1-0.1-0.1c0-0.3,0-0.6-0.1-0.9L71,66.7l0,0
			C71,66.7,70,66.1,69.7,65.3"/>
		<path class="st0" d="M66.9,55.6l-0.2,0.1c0,0-0.1,0-0.1,0c-0.2,0-0.5-0.1-1.2-0.7c-0.1-0.1-0.1-0.2-0.2-0.3
			c-0.1,0.6-0.3,1.8-0.5,2.7c-0.1,0.3-0.1,0.5-0.2,0.8c0.2,0.6,0.7,1.9,0.9,2.2c0.2,0.3,1.1,0.7,1.5,0.9c0.1-0.1,0.4-0.4,0.7-0.8
			c0.3-0.7,0.5-1.6,0.3-2.3c-0.1-0.5-0.6-2.2-0.8-3C67.1,55.4,67,55.5,66.9,55.6L66.9,55.6z"/>
		<path class="st0" d="M71.6,74.1l-0.1,0.1c0,0-0.6-0.7-0.9-1.2c-0.1-0.2-0.3-0.5-0.5-0.8l0.1,1.1c0,0.2-0.1,0.8-0.4,1.2
			c0,0.3,0.1,1,0.2,1.8c0,0,0.6,1.4,1.4,2.2c0.7,0.6,1,0.6,1,0.5c0,0,0.1,0,0.1-0.1c0.1-0.2,0-1.5,0-2.4c-0.1-0.2-0.2-0.5-0.4-0.7
			C72.1,75.4,71.8,74.8,71.6,74.1"/>
		<path class="st0" d="M62.6,55.6c0.2-0.2,0.8-0.8,1.1-1.5c0.1-0.2,0.1-0.3,0.1-0.5c0.2-0.6,0.2-0.7,0.1-1.3
			c-0.1-0.5-0.2-0.9-0.2-1.2c-0.2,0.3-0.4,0.6-0.7,0.8c-0.6,0.5-1.1,0.8-1.1,0.8l-0.1,0.1l-0.1,0c0,0-0.3-0.1-0.7-0.4
			c0,0.6,0,1.6,0.3,2.2C61.6,55.1,62.3,55.5,62.6,55.6"/>
		<path class="st0" d="M71.5,68.7c-0.2,0.5-0.7,1.2-1.6,1.6l0.1,0.9c0.1,0.2,0.6,1.2,0.9,1.6c0.3,0.4,0.9,1.1,0.9,1.1l0,0
			c0.2,0.2,0.5,0.3,0.8,0.5c0.8-0.4,0.4-2,0.4-2S72.4,71,71.5,68.7"/>
		<path class="st0" d="M64.1,71.4c-0.2,0-0.4,0-0.6-0.1c0,0.3-0.2,0.9-0.2,1.2c-0.1,0.3-0.2,0.7-0.3,1.1c0,0.5,0,1.5,0.2,2.1l0,0.1
			c0.2,0.6,0.2,0.8,0.8,0.8l0,0c0.4,0,0.8-1.1,1-1.8c0,0,0.1-1.4,0.1-1.9c0-0.3-0.3-1.2-0.4-1.7c0,0-0.1,0-0.1,0
			C64.5,71.3,64.3,71.4,64.1,71.4"/>
		<path class="st0" d="M69.2,74.5L69.2,74.5c0.3-0.1,0.4-0.7,0.5-1.1l-0.2-2.9c-0.1,0-0.1,0.1-0.2,0.1c-0.1,0-0.3,0-0.4,0
			c-0.4,0-0.7-0.1-1-0.2c0.1,0.6,0.2,1.9,0.2,3C68.5,74,69,74.5,69.2,74.5"/>
		<path class="st0" d="M66.7,69.5c0,0.2-0.1,0.5-0.2,0.7c-0.2,0.4-0.7,0.7-1.3,0.9c0.1,0.4,0.4,1.4,0.4,1.8h0c0,0,0.4,1.6,1.1,2.3
			c0.3,0.3,0.5,0.3,0.5,0.3c0.1,0,0.2-0.2,0.3-0.6c0.1-0.5-0.1-3.1-0.3-4.8l0.1,0C67.2,69.9,66.9,69.7,66.7,69.5"/>
		<path class="st0" d="M60.6,58.3c0,0-0.1,1.6,0.5,2.4c0.4,0.6,0.6,0.6,0.6,0.6s1.2-0.6,1.6-1.3c0.3-0.5,0.5-1,0.7-1.7l0,0l0,0
			c0.1-0.3,0.2-0.5,0.2-0.9c0.3-1.3,0.5-3.1,0.5-3.1l0,0c-0.2-0.3-0.4-0.6-0.5-0.9c0,0.1-0.1,0.3-0.1,0.4c0,0.1-0.1,0.3-0.1,0.5
			c-0.3,1.1-1.3,1.8-1.3,1.8l-0.1,0.1l-0.1-0.1c0,0-0.6-0.3-1.1-0.7C61.3,56,60.9,57.5,60.6,58.3L60.6,58.3z"/>
		<path class="st0" d="M65.1,78.4c-0.1-0.5-0.2-1.3-0.3-1.8c-0.2,0.3-0.4,0.5-0.7,0.5c0,0-0.1,0-0.1,0c-0.3,0-0.5-0.1-0.7-0.2
			c-0.1,0.1-0.2,0.4-0.3,0.9c0,0.1-0.1,0.3-0.2,0.5c0,0.1,0,1,0.3,1.9c0,0.1,0.1,0.3,0.1,0.4c0.2,0.8,0.3,0.9,0.7,1c0,0,0,0,0,0
			c0.3,0,0.7-0.9,0.9-1.6C64.9,79.9,65.2,79.1,65.1,78.4"/>
		<path class="st0" d="M67.5,77.7L67.2,76c-0.2,0-0.5-0.1-0.8-0.4c-0.4-0.3-0.6-0.9-0.8-1.4c0,0.4-0.1,0.7-0.1,0.8
			c0,0.2-0.2,0.7-0.4,1.2l0.1,0c0,0,0.2,1.2,0.3,1.9l0,0c0,0,0.3,1.2,1,1.9c0.4,0.4,0.5,0.4,0.5,0.4h0c0.1,0,0.2-0.3,0.3-0.4
			C67.6,79.6,67.6,78.4,67.5,77.7"/>
		<path class="st0" d="M69.2,75c-0.4,0-0.8-0.4-1.1-0.8c0,0.4,0,0.7-0.1,0.8c-0.1,0.3-0.2,0.6-0.4,0.8l0,0l0.3,1.9c0,0.1,0,0.5,0,1
			c0.1,0.1,0.3,0.4,0.8,0.7c0.2,0.1,0.3,0.2,0.3,0.1c0.1,0,0.3-0.4,0.4-0.6C69.7,78.3,69.5,76.4,69.2,75C69.3,75,69.3,75,69.2,75"/>
		<path class="st0" d="M55.7,79.2c0,0,0.1,0,0.2,0c0.5-0.3,1.8-1.6,2-2.3c0.2-0.8,0.3-2.8,0.3-2.8l0.1,0c-0.1-0.4-0.2-0.8-0.2-1.1
			c-0.7,1-1.8,1.8-1.8,1.9l0,0c-0.6,1.6-0.9,2.7-0.9,2.7s-0.2,0.6-0.1,1.2l0.1,0C55.3,78.8,55.5,79.2,55.7,79.2"/>
		<path class="st0" d="M59.3,70.1C59.3,70.1,59.3,70.1,59.3,70.1c1.5,0,2.3-1.5,2.4-1.8l1.4-7.5c-0.5,0.5-1.2,0.8-1.2,0.8
			c0,0-0.1,0.1-0.2,0.1c-0.2,0-0.5-0.1-1-0.8c-0.1-0.1-0.1-0.2-0.1-0.3c-0.5,1.2-1.8,4.2-2,4.8c-0.3,0.6-0.9,1.1-1.2,1.3l-0.2,0.5
			C57,67.6,57,67.9,57,68.2c0,0,0,0,0,0C57.2,68.7,58,70.1,59.3,70.1"/>
		<path class="st0" d="M62.6,77.7c0.2-0.7,0.3-1,0.4-1.2c-0.1-0.2-0.1-0.3-0.2-0.6l0-0.1c-0.1-0.4-0.2-0.9-0.2-1.3
			c-0.3,0.5-0.9,1.2-1.4,1.2c0,0,0,0,0,0c-0.1,0-0.2,0-0.2,0c-0.1,0-0.2,0-0.2-0.1c-0.1,0.7-0.2,1.7-0.3,2.3c0,0.1-0.1,0.2-0.1,0.4
			h0c0,0.7,0.2,1.6,0.4,1.8c0.2,0.1,0.6-0.2,0.8-0.4C61.6,79.7,62.3,78.4,62.6,77.7"/>
		<path class="st0" d="M60,77.9c0.1-0.9,0.3-2.8,0.3-3c-0.1-0.3-0.2-0.6-0.2-1c-0.2,0.4-0.4,0.7-0.5,0.7c0,0-0.2,0.3-0.6,0.3h0
			c-0.2,0-0.4-0.1-0.5-0.3c0,0.7-0.1,1.7-0.3,2.3c0,0.5,0.1,1.8,0.3,2.3c0.1,0.2,0.2,0.2,0.2,0.2c0.2,0.1,0.4-0.1,0.4-0.2
			C59.2,79.3,59.9,78.7,60,77.9"/>
		<path class="st0" d="M39.7,66L39.7,66c0-0.1,7.2-6,8.6-7.2c-0.8,0.3-2.2,0.9-3.1,1c-0.3,0-0.9,0.1-1.5,0.2c-0.1,0.1-1.2,0.8-2,1.6
			c-0.4,0.4-1.8,1.5-3,2.5c-0.9,0.8-1.9,1.5-2.2,1.8c-1,1.1-1,1.4-1,1.4C35.1,68.5,37.7,67.3,39.7,66"/>
		<path class="st0" d="M67.7,82.7c0,0-0.3-0.7-0.4-1.1c-0.1-0.2-0.2-0.6-0.2-0.7l0,0c0,0,0,0-0.1,0c-0.3,0-0.5-0.2-0.9-0.6
			c-0.3-0.3-0.5-0.7-0.7-1.1c-0.1,0.4-0.2,0.8-0.2,0.8c-0.1,0.2-0.2,0.7-0.4,1.1c0.2,0.3,0.7,1,0.9,1.3c0.2,0.3,0.9,1.2,0.9,1.2
			l-0.2,0.1C67.3,83.7,67.6,83.1,67.7,82.7"/>
		<path class="st0" d="M69.4,83.4c0,0-0.1-1.3-0.1-2c0-0.4,0-1.1,0-1.6c0,0-0.1,0.1-0.1,0.1c-0.1,0-0.1,0-0.2,0
			c-0.2,0-0.4-0.1-0.6-0.2c-0.2-0.1-0.4-0.3-0.6-0.5c0,0.4-0.1,0.8-0.2,1c-0.1,0.1-0.1,0.2-0.2,0.3c0,0,0.2,0.5,0.2,0.9
			c0.1,0.3,0.3,1,0.3,1l-0.3,0.1c0.2,0.8,0.6,1.8,1.7,2.8c0.1-0.1,0.1-0.3,0.1-0.5l-0.1,0L69.4,83.4z"/>
		<path class="st0" d="M71.9,82.1c0-0.2-0.2-0.8-0.6-1.5c0,0-0.1-0.1-0.1-0.1l0,0c-0.2-0.5-0.5-0.9-0.8-1.3L70,77.7
			c0,0.5,0,1-0.1,1.2c0,0.1-0.1,0.2-0.1,0.3l0.1,0c0,0,0,1.4,0,2.1c0,0,0,0.1,0,0.2c0.2,0.2,1,0.9,1.3,1.3c0,0,0.1,0.1,0.1,0.1
			C71.4,82.9,71.9,82.6,71.9,82.1"/>
		<path class="st0" d="M62.9,83.8c-0.1-0.3-0.2-0.6-0.3-0.8c0,0,0,0,0,0c0,0.6-0.1,2.6,0,4.5c0.1-2,0.2-3.8,0.2-3.8L62.9,83.8z"/>
		<path class="st0" d="M64.6,81.6C64.4,81.9,64.2,82,64,82c0,0-0.1,0-0.1,0c-0.2,0-0.3-0.1-0.5-0.2c-0.1,0.2-0.3,0.4-0.5,0.7
			c0,0.1,0.4,1.1,0.7,1.8c0.2,0.4,0.4,0.6,0.5,0.7c0.1-0.1,0.4-0.3,0.6-0.7c0.3-0.6,0.5-1.9,0.5-2C65,82.2,64.8,81.8,64.6,81.6"/>
		<path class="st0" d="M63.8,95.9c0.2,0.9,0.4,1.8,0.6,2.4c0.2,0.4,0.3,0.7,0.4,1c0-0.2,0.1-0.6,0.1-1.1
			C64.8,97.8,64.2,96.8,63.8,95.9"/>
		<path class="st0" d="M64.2,92.1c-0.3-1.5-0.4-6-0.4-6.6c0,0,0,0,0,0c0,0.7-0.1,2.3,0,3.3c0,1.5,0.4,4,0.4,4l-0.5,0.1
			c0,0-0.4-2.5-0.4-4c0-1.5,0.1-3.8,0.1-3.8l0.1,0c-0.1-0.1-0.2-0.3-0.2-0.4c0,0,0,0,0,0c-0.1,1.1-0.2,3.3-0.2,5.1
			c0,0.5,0,1.1,0.1,1.8c0.3,1.8,0.7,3.2,1,3.9c0.3,0.6,0.7,1.4,1,2c0-0.2,0-0.4,0-0.7c0-1.5-0.3-2.3-0.3-2.3l0.1,0
			C64.6,93.6,64.3,92.7,64.2,92.1"/>
		<path class="st0" d="M74.1,81.8c0,0,0-0.1,0.1-0.2c0.1-0.7,0.1-1,0.2-1.2c0,0,0,0,0,0c0,0-0.4-1.1-1.3-2.9c0,0.6,0,1.3-0.1,1.6
			c-0.1,0.2-0.3,0.4-0.5,0.4c-0.1,0-0.1,0-0.2,0c-0.4,0-0.8-0.2-1.3-0.7c-0.1-0.1-0.2-0.2-0.3-0.3L71,79c0.1,0.2,0.5,0.7,0.8,1.4
			c0.3,0.3,0.9,0.9,1.4,1.2C73.8,81.8,74,81.9,74.1,81.8"/>
		<path class="st0" d="M91.6,48.8c-0.1,0-0.2,0.1-0.3,0.1c-0.6,0.2-1.1,0.3-1.5,0.4c0,0,0.1,0.1,0.1,0.1c0.3,0.1,0.3,0.3,0.3,0.4
			c0,0.1-0.1,0.3-0.3,0.4c1.2,0.5,3.1,1.2,4.5,1.6l0,0c0,0,0,0,0,0c0.7,0.2,1.3,0.4,1.6,0.4l0.6,0c0.8,0,1.2,0,1.6-0.1
			c0.1,0,0.1,0,0.1,0c0-0.1-0.1-0.4-0.3-0.5l-0.4-0.4c-0.1,0-0.2,0-0.3,0C96.5,50.9,91.9,48.9,91.6,48.8"/>
		<path class="st0" d="M92.9,47.9l0.1,0.3l-0.2,0.1c0,0-0.2,0.1-0.6,0.3c1.2,0.5,4.6,1.9,5.4,2.1c1,0.2,3.2,0.2,3.2,0.2v0
			c0.1,0,0.3,0,0.4-0.1c0.3-0.9-1.8-1.7-1.8-1.7s-0.9-0.5-4-1.6C95.3,47.5,93.9,47.8,92.9,47.9"/>
		<path class="st0" d="M89.5,50.4c-0.3,0.1-0.7,0.2-1.1,0.3c-0.5,0.1-1,0.1-1.4,0.1c0.1,0.1,0.1,0.2,0.1,0.4c0,0.2-0.1,0.4-0.2,0.5
			c0.8,0.3,2.7,1.1,3.6,1.3c0.6,0.2,0.9,0.2,1.3,0.3c0.3,0.1,0.6,0.1,1.2,0.3c1.4,0.3,2.1,0.2,2.7,0.1c0.1,0,0.2-0.1,0.2-0.1
			c0-0.1-0.1-0.4-0.4-0.6c-0.4-0.3-1.1-0.7-1.2-0.7C92.4,51.7,89.7,50.6,89.5,50.4L89.5,50.4z"/>
		<path class="st0" d="M87.9,59c-0.5,0-1-0.1-1.6-0.2l0.1,0.1c0.2,0.2,0.5,0.5,0.3,0.8c0,0.1-0.1,0.2-0.4,0.3c-0.1,0-0.2,0-0.3,0
			c-0.1,0-0.2,0-0.4,0c0.5,0.4,1.3,1.1,1.8,1.5c0.6,0.6,4.5,3.7,4.5,3.7l-0.1,0.1c2.2,1.6,6,3.5,5.5,2.2c0,0,0-0.2-0.4-0.8l0,0
			l-5.4-4.7C90.6,61.2,88.2,59.2,87.9,59"/>
		<path class="st0" d="M79.9,89.1c-0.1,0.3-0.2,0.6-0.4,0.8L79.4,90l-0.2-0.1c0,0-0.5-0.3-1-0.4c-0.1,0-0.1,0-0.2-0.1
			c0.2,0.3,0.4,0.7,0.4,0.8l0.2,0.3h-0.6c1,1,1.9,1.9,2.6,3l-0.3,1.4c0,0,0-0.1,0-0.1c0,0.1-0.1,0.2-0.1,0.2
			c0.2,0.2,0.5,0.6,0.8,0.6c0.4,0.1,0.6-0.3,0.6-0.3l0.3-0.5c-0.2-0.2-0.3-0.5-0.5-0.6l-0.6-0.6l0.8,0.3c0.1,0,1.6,0.6,2.2,0.9
			c0.2,0.2,0.4,0.3,0.5,0.5c0-0.3-0.1-0.7-0.2-1c-0.2-0.5-1-1.8-1-1.8l0,0C82,91.4,80.9,90.3,79.9,89.1"/>
		<path class="st0" d="M88.7,55.5c-0.2-0.1-0.4-0.1-0.7-0.2c-1.2-0.3-3.9-1.5-4.2-1.7c-0.4,0-0.7,0.1-1,0.1c0.3,0.1,0.5,0.3,0.7,0.5
			c0.1,0.2,0.3,0.4,0.2,0.6c-0.1,0.3-0.5,0.3-1.1,0.4c-0.2,0-0.3,0-0.5,0c-0.1,0-0.2,0-0.3,0c0.7,0.3,1.5,0.6,1.9,0.8
			c0.8,0.3,1.5,0.5,2.8,0.8c1.3,0.3,2.4,0.5,3.3,0.4c0.2,0,0.4,0,0.5-0.1c0.2,0,0.4,0,0.4-0.1c0,0,0-0.1-0.1-0.3
			C90.4,56.4,89.4,55.8,88.7,55.5"/>
		<path class="st0" d="M83.9,96.5c0.3-0.2,0.4-0.5,0.4-0.6c-0.1-0.1-0.4-0.5-0.7-0.7c-0.2-0.2-0.8-0.4-1.3-0.6
			c0.3,0.5,0.7,1.1,0.8,1.7c0,0.3,0,0.5,0,0.6C83.3,96.8,83.7,96.7,83.9,96.5"/>
		<path class="st0" d="M49,56.8c-0.4,0.2-1.3,0.6-2.5,1c-1.3,0.4-2.9,0.9-3.5,1.1l0,0c-0.4,0.3-0.8,0.6-0.9,0.8
			c0.5,0.1,1.7,0.1,3.1-0.2c1.2-0.2,3.6-1.3,3.6-1.3c-0.1-0.1-0.2-0.2-0.3-0.3c-0.1-0.1-0.1-0.3,0-0.6C48.6,57.1,48.8,56.9,49,56.8"
			/>
		<path class="st0" d="M43.6,46.5c0,0,0.1,0.1,0.6,0.1c1,0,2.6-0.6,2.6-0.6l0.2,0.4c0,0-0.8,0.3-1.7,0.5l0,0l-1,0.4
			c-0.1,0-0.1,0-0.2,0c0,0,0.1,0.1,0.2,0.1c0.9,0.4,2,0.2,2,0.2l2.6-0.6l0,0c-0.1-0.1,0-0.2,0-0.3c0.1-0.2,0.6-0.3,1.1-0.4
			c-0.2-0.1-0.4-0.1-0.5-0.2l-0.1-0.1l0-0.2c0-0.1,0-0.2,0.5-0.3c-0.1-0.1-0.2-0.2-0.2-0.3c-0.3,0.1-0.6,0.1-0.9,0.1
			c-0.1,0-0.3-0.1-0.4-0.2C47.4,45.6,46.5,46,46,46c0,0,0,0-0.1,0c-0.3,0-0.5-0.1-0.6-0.3c-0.1-0.2-0.1-0.5-0.1-0.7
			c-0.4,0.1-1,0.3-1.6,0.3L43.6,46.5C43.6,46.4,43.5,46.4,43.6,46.5"/>
		<path class="st0" d="M49.5,47.5c-0.1,0-0.3-0.1-0.4-0.1l0,0.1L47,48l0,0.1c0,0-0.1,0.1-0.1,0.1c0,0,0.1,0,0.2,0
			c0.4,0.1,1.1,0.2,1.6,0.2c0-0.1-0.1-0.2-0.1-0.3C48.7,47.9,49.1,47.7,49.5,47.5"/>
		<path class="st0" d="M61.7,83.5c0,0,0.1,0,0.1-0.1c0.1-0.1,0.2-0.2,0.3-0.4c0,0,0,0,0,0l0,0c0.4-0.5,0.8-1.1,1-1.4
			c-0.1-0.2-0.2-0.5-0.3-0.8c0-0.1-0.1-0.2-0.1-0.4c-0.1-0.4-0.2-0.8-0.3-1.2C62.2,79.6,62,79.9,62,80c-0.1,0.1-0.3,0.4-0.6,0.5
			c0,0.1-0.2,0.7-0.4,1c-0.1,0.2-0.1,0.9-0.1,1.3h0c0,0,0,0.1,0,0.1l0,0L61.7,83.5C61.6,83.4,61.7,83.5,61.7,83.5"/>
		<path class="st0" d="M33.6,52.1c0,0,1.7-0.5,2.6-0.8c0.7-0.2,2-0.8,2.6-1.1c-0.1-0.1-0.1-0.2-0.2-0.3c0-0.2,0.1-0.4,0.2-0.5
			c-0.4-0.1-0.7-0.2-1.1-0.4c-0.2-0.1-0.4-0.1-0.6-0.2c-0.5,0.3-2.4,1.1-3.4,1.3c-1,0.2-2.8,0.8-3,0.9c-0.3,0.4-0.6,0.8-0.6,1
			C30.7,52,32.4,52.3,33.6,52.1"/>
		<path class="st0" d="M48.4,55.6c-0.1-0.1-0.1-0.2-0.1-0.3c0,0,0.1-0.1,0.1-0.2l-4.1,1.5c-0.3,0.1-0.6,0.2-1.2,0.4
			c-0.7,0.2-1.2,0.3-1.2,0.3l0,0l0,0c-0.7,0.2-1.6,0.7-1.8,1.1c0,0,0,0,0,0.1c0.1,0.1,0.6,0.1,1.1,0.1c0,0,0.1,0,0.2,0
			c0.3,0,0.8,0,1.3-0.2c0.1,0,0.2-0.1,0.4-0.1l1.5-0.5l-0.2,0.1c0.6-0.2,1.3-0.4,2-0.6c1.6-0.5,2.5-1,2.6-1.1c0-0.2,0-0.4,0.1-0.6
			C48.8,55.8,48.5,55.8,48.4,55.6"/>
		<path class="st0" d="M48.1,53.5c-1.1,0.2-2.3,0.5-2.4,0.7c-0.1,0.1-0.1,0.2-0.2,0.2c0.1,0,0.2,0.1,0.4,0.1
			c0.7,0.2,2.6,0.1,2.6,0.1l0,0.2l0,0c0.2-0.2,0.4-0.4,0.6-0.6c0,0-0.1,0-0.1,0c-0.1-0.1-0.2-0.2-0.2-0.4c0-0.2,0-0.3,0.1-0.5
			C48.7,53.5,48.4,53.5,48.1,53.5"/>
		<path class="st0" d="M49.1,51.7c-0.5,0.1-1.5,0.2-2.2,0.3c-0.1,0-0.3,0-0.4,0.1c-0.5,0.1-1.1,0.2-1.9,0.2c-0.1,0-0.2,0-0.3,0l0,0
			c-0.3,0.1-0.6,0.3-0.6,0.4c0,0,0.1,0.1,0.5,0.2c0.9,0.3,1.4,0.2,1.9,0.1c0.3,0,0.7-0.1,1.1-0.1c0.2,0,0.5,0,0.7,0c0,0,0.1,0,0.1,0
			l0,0c0.5,0,0.9-0.1,1-0.2C48.8,52.6,49,52,49.1,51.7C49.1,51.8,49.1,51.7,49.1,51.7"/>
		<path class="st0" d="M31,66.8L31,66.8c0.1-0.1,1.9-1.9,2.6-2.3c0.5-0.3,4.6-3.9,6.5-5.5c-0.1,0-0.2-0.1-0.3-0.2
			c-0.1-0.1-0.1-0.3-0.1-0.5c0.1-0.2,0.3-0.5,0.5-0.6c-0.2,0-0.3,0-0.5,0c-1.1,0-1.8-0.2-2.2-0.5c-0.8,0.6-3.4,2.7-4.3,3.5
			c-0.9,0.8-1.9,1.7-3.3,2.9c-0.9,0.8-2.3,2.1-2.9,2.8c-0.5,0.9-0.4,1.3-0.4,1.3C26.7,68.8,29,68,31,66.8"/>
		<path class="st0" d="M46.6,97l-0.1,0c0,0,0,0,0.1,0.1C46.6,97.1,46.6,97.1,46.6,97"/>
		<path class="st0" d="M58.4,84.6c0.1-0.7,0.3-1.8,0.3-2c0-0.1,0-0.3,0-0.6c-0.3,0.4-0.8,0.9-1.1,1.1c-0.1,0.1-0.2,0.1-0.2,0.1
			c0,0.1-0.2,0.6-0.4,1.1c-0.2,0.5-0.5,1.5-0.5,1.5l-0.1,0c-0.1,0.9,0.1,1.8,0.9,2.5c0,0,0,0.1,0.1,0.1v0c0,0,0,0,0.1,0.1
			c0.3-0.4,0.1-1.6,0.1-2.1c0-0.2,0.1-0.3,0.2-0.5C57.9,85.4,58.2,85,58.4,84.6"/>
		<path class="st0" d="M47.9,64.4l2.4-2.3c-0.1-0.5-0.1-1,0-1.4c-0.1,0-0.2-0.1-0.3-0.1l-4.9,4l0,0c-0.7,0.8-0.7,1-0.7,1
			C44.1,66.5,46.3,65.5,47.9,64.4L47.9,64.4z"/>
		<path class="st0" d="M46.3,95.7c-0.2,0.3-0.3,0.7-0.3,0.8c0,0.1,0.1,0.1,0.1,0.2l0.5-0.1v0C46.6,96.3,46.4,95.9,46.3,95.7"/>
		<path class="st0" d="M43.9,93.2c-0.4,0.1-1.1,0.7-1.4,0.9c0.2,0.4,0.5,0.8,0.6,0.9c0.2,0.1,0.4,0.2,0.6,0.2c0-0.4,0.1-0.8,0.1-1
			c0.1-0.2,0.4-0.8,0.6-1.3C44.3,93.1,44.2,93.2,43.9,93.2"/>
		<path class="st0" d="M45.5,94.9c-0.6,0.3-1,0.3-1.2,0.3c0,0.3,0.1,0.7,0.3,1c0.2,0.2,0.6,0.4,1,0.5c0,0,0,0,0-0.1
			c-0.1-0.3,0.2-0.8,0.5-1.4l0.1-0.1c0.1-0.2,0.2-0.4,0.4-0.6C46.1,94.6,45.8,94.8,45.5,94.9"/>
		<path class="st0" d="M42.7,97.1c0,0,0,0,0.1,0.1c0.4,0.1,1.2-0.1,1.4-0.2l0.6-0.1c-0.2-0.1-0.5-0.3-0.6-0.4
			c-0.1-0.1-0.1-0.2-0.2-0.4L42.8,97C42.8,97,42.7,97.1,42.7,97.1"/>
		<path class="st0" d="M77.7,62.1c-0.2-0.2-0.4-0.4-0.6-0.5c0,0.2,0,0.4-0.1,0.7c-0.1,0.3-0.2,0.5-0.4,0.7c0.8,0.9,4.2,2.9,3.9,1.9
			c0,0,0-0.1-0.2-0.3C79.7,64,78.1,62.5,77.7,62.1"/>
		<path class="st0" d="M41.6,95.5c0.3-0.4,0.7-0.8,0.7-0.8l0,0c-0.1-0.2-0.2-0.4-0.3-0.5l0-0.1c-0.1,0.2-0.3,0.3-0.3,0.6
			c-0.4,0.4-0.8,0.7-0.7,1c0,0.2,0.1,0.3,0.3,0.5C41.3,96,41.4,95.8,41.6,95.5"/>
		<path class="st0" d="M109.4,57.9c-3-3-6.3-5.2-8.6-6.6c-0.3,0-1.3,0-2.2-0.1c0.1,0.1,0.5,0.6,0.4,1c0,0.1-0.1,0.3-0.4,0.4
			c-0.4,0.1-0.7,0.2-1.2,0.2c0.9,0.6,2.8,2,4.2,3c1.8,1.3,4.5,3.7,4.5,3.8c0,0,1.2,1.5,2.1,2.6c0.9,1.1,2,2.3,2,2.3l0,0
			c0.1,0.1,0.2,0.1,0.2,0.2c0.8,1.6,7.4,3.5,7.5,1.7C117.9,66.4,113.5,62.1,109.4,57.9"/>
		<path class="st0" d="M22.4,65.5l1.2-1.1c1.5-2.1,4.8-4.9,6.1-6c0.2-0.1,0.3-0.2,0.3-0.3c0.7-0.6,4.9-3.3,5.1-3.4l0,0
			c0.1-0.2,0.2-0.3,0.3-0.5c-0.3,0.1-0.5,0.1-0.7,0.1c-1.7,0-2.4-0.2-2.5-0.7c0-0.3,0.3-0.7,0.6-1c-0.2,0-0.4,0-0.6,0
			c-0.2,0.1-4.8,3-6.4,4.5l-0.1,0.1c-0.7,0.6-2.4,2.2-3.6,3.2l-0.1-0.1c-3,3.5-4.8,6.6-4.8,6.6C17.3,68.5,20.4,67.1,22.4,65.5
			L22.4,65.5z"/>
		<path class="st0" d="M26.6,66.2c0.5-0.5,2.1-2.1,3.2-3c1.4-1.2,2.4-2,3.3-2.9c1-0.9,4.4-3.6,4.5-3.7l0,0c0.1-0.3,0.4-0.6,0.8-0.8
			c-1.3,0.2-2.2,0.1-2.2,0.1c-0.1,0-0.8-0.1-1.1-0.5c0,0,0-0.1,0-0.2c-0.9,0.6-4.2,2.7-4.8,3.2c-0.1,0.1-0.2,0.2-0.4,0.3
			c-1.2,1-4.6,3.8-6,5.9l-0.4,0.4c-0.8,1.2-1.3,2-1.3,2C22.2,68.4,24.6,67.5,26.6,66.2"/>
		<path class="st0" d="M47.9,97.5C47.9,97.5,47.9,97.5,47.9,97.5C47.9,97.5,47.9,97.5,47.9,97.5C47.9,97.5,47.9,97.5,47.9,97.5"/>
		<path class="st0" d="M47.6,97.9c-0.1,0-0.1,0-0.2,0c-0.8,0-1.2-0.4-1.4-0.6c-0.1,0-0.2,0-0.3-0.1l-1.3,0.2c0,0-0.7,0.2-1.3,0.2
			c-0.1,0-0.3,0-0.4,0c-0.1,0-0.2-0.1-0.3-0.1c0.2,0.1,0.3,0.2,0.5,0.3c0.3,0.3,0.6,0.5,1.2,0.6c0.5-0.1,0.9-0.2,1.3-0.3
			c0.9,1.1,2.2,0.7,2.5-0.1C47.8,97.9,47.7,97.9,47.6,97.9"/>
		<path class="st0" d="M42.3,97.3c-0.1-0.3,0.2-0.6,0.2-0.6l1.2-0.9c-0.3-0.1-0.6-0.1-0.8-0.3c-0.1-0.1-0.3-0.2-0.4-0.4
			c-0.1,0.1-0.4,0.3-0.6,0.7c-0.2,0.4-0.3,0.6-0.3,0.6l0,0c0.1,0,0.1,0.1,0.2,0.1c0,0.1,0.1,0.1,0.2,0.1l0,0c0,0,0,0,0,0.1
			c-0.1,0.1-0.1,0.1-0.1,0.2c0,0.1,0.1,0.2,0.2,0.2l0,0c0.1,0.1,0.2,0.2,0.3,0.2C42.3,97.4,42.3,97.3,42.3,97.3"/>
		<path class="st0" d="M104.5,64.3c0,0-3.9-3.5-5.3-4.7c-1.5-1.2-4.5-3.7-4.6-3.8l-0.8-0.6c0,0.1,0,0.2,0,0.3
			c-0.2,0.4-1,0.5-1.6,0.5c-0.4,0-0.8,0-1-0.1c-0.3,0-0.5-0.1-0.8-0.1c0.3,0.2,0.5,0.4,0.6,0.6l0,0l3.3,2.6c0.3,0.2,0.9,0.7,1.5,1.3
			c1.1,0.9,2.5,2.1,3.4,2.8c1.2,1,2.4,2.3,2.6,2.7c2,1.4,4.7,2.5,4.7,1.1C106.4,67.1,105.7,65.9,104.5,64.3L104.5,64.3z"/>
		<path class="st0" d="M55.2,41.7c-0.1-0.2,0.1-0.9,0.1-1c0,0,0.1,0,0.1,0l-0.1,0c0.3-0.3,1.1-0.6,1.7-0.3c0.3,0.2,0.6,0.2,1,0.2
			c0.4,0,0.9,0,1.4,0.2c0.8,0.3,1.8,0.6,2.1,0.7c0-0.5-0.4-1-1-1.7c-0.8-0.9-2.2-1.7-2.2-1.7l0.2-0.4c0.1,0,1.5,0.9,2.3,1.8
			c0.7,0.8,1.9,2.1,0.6,3.2c-1,0.9-1.9,1.4-1.9,1.4l-0.3-0.3c0,0,0.9-0.5,1.9-1.4c0.1-0.1,0.2-0.3,0.3-0.4c-0.2-0.1-1.3-0.5-2.2-0.7
			C59,41,58.6,41,58.2,41c-0.4,0-0.9,0-1.3-0.2c-0.5-0.3-1,0-1.2,0.1l-0.1-0.1c-0.2,0.3-0.1,0.7-0.1,0.7c1.9,0.2,3,1.5,4.4,2.4
			c-0.3,0.3-0.7,0.6-0.9,0.9c0.4,0,0.8,0,1.2,0c-0.3,0.8-0.4,1.4-0.2,2c-0.4,0.6-1.2,2.3-2.5,3.2c0.5,0.2,1,0.3,1.6,0.3l0.3-0.1
			c0,0,0.4-0.2,1.6-0.5c0.8-0.2,1.1-0.4,1.2-0.5c-0.4-0.8-0.7-1.8-0.7-1.9l0.4-0.1c0.2,0.5,0.7,2,1,2.5c0.3,0.5,1,0.7,1.2,0.8
			c0.2-0.1,0.8-0.3,1.1-0.8c0.3-0.5,0.4-1.9,0.4-2.4h0.5c0,0,0,0.5-0.1,1.1l0,0c0.1,0.3,0.3,1.2,0.8,1.3c1.1,0.3,2.3,0.2,2.3,0.2
			l0,0.1c0.5-0.1,1.1-0.3,1.8-0.6c-1.2-0.5-2.3-2.9-2.7-3.5c0-0.6,0-1.1-0.1-1.5c0.6,0,1.2-0.2,2.1-0.8c-1-0.6-1.7-2.2-1.9-2.9
			l-0.1,0c0-0.1,0-0.1-0.1-0.2c2.5-0.4,2.2-3.2,2.6-3.8c-0.6,0-2.4,1.5-3.9,0.3c-3-1.2-3.2-0.6-4.2-0.8c-2.5-0.6-3.3,0.2-4.2,1.6
			c0,0,0,0,0,0c-0.8,0.2-1.6,0.2-1.7,0.1c-2.4,0.1-2.4,1.9-2.5,2.1C54.5,41.1,54.7,41.6,55.2,41.7 M68.1,44v0.5c0,0-1.1,0-1.6-0.5
			c-0.1-0.1-0.2-0.3-0.3-0.5c-0.1,0.4-0.2,0.8-0.4,1.3c-0.5,1-1.2,1.2-1.3,1.2l-0.1,0l-0.6-0.5c0,0-0.2-0.3-0.4-0.7
			c0,0-0.5,0.1-1.1,0.2c-0.5,0.1-1.2,0.2-1.6,0.2c-0.1,0-0.5,0.1-0.6,0.1l0.2-0.4c0,0,1.2-0.2,1.8-0.3c0.6-0.1,0.9-0.2,1-0.2
			c-0.1-0.3-0.2-0.5-0.3-0.8c-0.2-0.8-0.2-2-0.2-2h0.5c0,0,0,1.1,0.2,1.9c0.2,0.7,0.7,1.6,0.8,1.8l0.4,0.3c0.2-0.1,0.5-0.3,0.9-0.9
			c0.5-0.9,0.4-1.7,0.4-1.7l-0.4-1.4l0.4-0.1L66,42l0,0c0.1,0.3,0.4,1.2,0.7,1.6C67.1,43.9,67.8,44,68.1,44 M61.7,37.9
			c0,0,0.2,0.6,0.5,0.7c0,0,0.3-0.1,0.5-0.3c0.2-0.3,0.2-0.5,0.2-0.5l3.5,0.9l-4.1-0.1l-1.4,0.1L61.7,37.9z"/>
		<path class="st0" d="M50,90.4c-0.1-0.1-0.2-0.3-0.1-0.6c0-0.1,0.1-0.2,0.2-0.3c-0.2,0-0.3,0.1-0.4,0.1c-0.1,0-0.1,0.1-0.2,0.1
			c-0.1,0-0.1,0-0.2,0c-0.1,0-0.2-0.2-0.3-0.4c0-0.2-0.1-0.5-0.1-0.6c-1.1,1.3-2.3,2.7-3.6,3.9c-0.3,0.5-0.9,1.7-1,2
			c0,0.1-0.1,0.2-0.1,0.3c0.2,0,0.5,0,1-0.2c0.8-0.3,1.7-0.8,1.7-0.8l0.7-0.3l-0.4,0.6c0,0-0.5,0.8-0.8,1.2l0,0.1l0,0l0.1-0.1
			c0,0,0.5,0.7,0.5,1.2c0,0.1,0,0.2,0,0.3c0,0.2,0,0.3-0.1,0.5c0.1,0.1,0.2,0.1,0.4,0.1c0.4,0,0.5,0,0.5,0c0.1-0.1,0.1-0.2,0-0.4
			c0.1-0.2,0.2-0.4,0.2-0.7c0-0.3-0.2-0.6-0.3-0.9l-0.3-1.8c0.7-1.1,1.7-2.1,2.8-3.1C50.2,90.5,50.1,90.5,50,90.4"/>
		<path class="st0" d="M18.1,64.6c0.7-0.6,2.2-2.9,3.8-4.5l-0.1-0.1c1.1-1.1,2.9-2.6,3.6-3.3l0.1-0.1c1.4-1.2,4.6-3.3,5.9-4.2
			c-0.8-0.1-1.4-0.2-1.4-0.2l-0.1,0l0,0c-0.3-0.3-0.1-0.8,0.2-1.2c-0.9,0.1-1.8,0.1-2.2,0.1c-2.4,1.4-5.7,3.6-8.7,6.6
			c-4.2,4.2-8.6,8.5-8.6,8.5C10.7,68.1,17.4,66.2,18.1,64.6"/>
		<path class="st0" d="M107.9,62.4c-0.9-1.1-2.1-2.6-2.1-2.6s-2.7-2.4-4.5-3.7c-1.8-1.3-4.7-3.3-4.7-3.4l0,0l-0.5,0
			c-0.1,0-0.2,0-0.3,0c0.3,0.3,0.6,0.7,0.6,1.1c0,0.1-0.1,0.4-0.5,0.5c-0.4,0.1-0.8,0.2-1.3,0.2c-0.4,0-1-0.1-1.6-0.2
			c0.2,0.1,0.3,0.2,0.5,0.3l1.4,1.1c0,0,3.1,2.6,4.6,3.8c1.5,1.2,5.3,4.7,5.4,4.7l-0.1,0.1c1.1,1.8,6.6,4.9,6.7,2.9
			c0,0-0.7-1.1-1.8-2.7C109.2,63.9,108.5,63.1,107.9,62.4"/>
		<path class="st0" d="M33,47c1.4,0.4,2.3,0.6,4,0.4c2.1-0.2,3.8-0.5,3.8-0.5l2.3-0.5c0,0,0-0.1,0-0.1l0-0.8c0,0,0,0,0,0
			c-1.3,0-2.5-0.5-2.5-0.5l0.2-0.4c0,0,1.1,0.5,2.3,0.5c1.2,0,2.3-0.5,2.3-0.5l0.5-0.2l-0.2,0.5c-0.1,0.2-0.2,0.6-0.1,0.7
			c0,0.1,0.1,0.1,0.3,0.1c0.5,0,1.4-0.5,2.3-0.9c0,0,0-0.1,0-0.1l0,0c0.4-0.2,0.7-0.4,1-0.5l0.2,0.4c0,0-0.3,0.2-0.7,0.4
			c0.4,0,0.9-0.1,1-0.2l1.5-0.6l-1.3,1c0,0-0.1,0.1-0.1,0.1c0,0,0,0,0.1,0.1c0.3,0.1,0.7,0.1,0.9,0.1c0,0,0.1,0,0.2,0l0.1,0.4
			c0,0-0.1,0-0.2,0c-0.3,0.1-0.7,0.1-1,0.2c0.4,0.1,0.9,0.3,1.3,0.4l1.6,0.4h-1.7c-0.8,0-1.7,0.1-2,0.2c0.2,0.1,0.7,0.2,1.2,0.3
			l1.3,0.2l-1.3,0.2c-0.7,0.1-1.4,0.4-1.4,0.5c0,0.1,0.5,0.2,0.9,0.3l1,0.1l-0.9,0.2l0,0.1c-0.1,0-0.2,0-0.3-0.1l0,0
			c-0.7,0.2-1.5,0.5-1.6,0.6c0,0,0.1,0.1,0.2,0.2h1.2v0.5l-1.2,0c0,0-0.1,0-0.1,0.1H49l-0.1,0.3c0,0,0,0.1,0,0.1c0,0,0,0,0.1,0
			c0.2,0,1-0.1,1.4-0.2l0.1,0.4c0,0-0.8,0.3-1,1c-0.1,0.3-0.1,0.5-0.1,0.6c0,0,0,0,0.1,0c0-0.1,0.1-0.1,0.1-0.1l0.4,0.3
			c0,0-0.1,0.1-0.1,0.1c-0.3,0.3-0.6,0.8-0.6,1.1c0,0.1,0,0.1,0,0.1c0.1,0.1,0.4,0,0.6-0.1l0.2,0.4c-0.5,0.3-1.1,0.8-1.3,1
			c0.2-0.1,0.5-0.2,0.8-0.4l1.2-0.8l-0.9,1.1c-0.3,0.4-0.6,0.9-0.5,1.1c0.1,0,0.2,0,0.4,0c0.4-0.2,0.7-0.3,0.8-0.4l0.2,0.4
			c-0.1,0-0.4,0.3-0.9,0.4c-0.5,0.2-1,0.5-1.1,0.7c0,0.1,0,0.1,0,0.2c0.1,0.1,0.3,0.2,0.4,0.3l0.1,0l0,0l0,0l0.4,0.1l-0.4,0.3
			c-0.2,0.2-0.4,0.4-0.4,0.5c0,0,0,0,0.1,0.1c0.4,0.2,0.8-0.1,0.8-0.1l1.4-1.2L50.2,59c-0.2,0.3-0.5,0.8-0.3,1
			c0.2,0.2,0.5,0.3,0.7,0.3c0.2-0.3,0.8-1.1,1.6-1.4c0.8-0.3,3.8-1.5,4.3-1.7c0.2-0.3,0.4-0.6,0.5-0.8c-0.5-0.1-0.8-0.2-0.9-0.2
			l-0.6-0.2l0.5-0.3c0,0,0.3-0.1,0.7-0.6c0.3-0.3,0.5-0.6,0.6-0.7c-0.8,0.1-1.6,0.1-2.2-0.2c-1.8-0.6-2.2-2-1.5-3.2
			c0.7-1.1,1.9-2.2,2-3.4c0.7-1.4-0.1-4.4-3.3-5c-2-0.3-6.9-0.2-8.1,0.6c-1.1,0.8-3,0.1-4.1-0.5c-0.4,0.8,0,1.3,0.6,1.7
			c-5,0.6-6.4,1.1-6.4,1.1s-2.7-0.2-2.5,0.7C32.3,46.7,32.6,46.9,33,47L33,47z"/>
		<path class="st0" d="M27.7,50.8L27.7,50.8c0,0,1.7,0.1,2.9-0.2c0.1,0,2-0.7,3.1-0.9c0.8-0.2,2.1-0.8,2.9-1.1
			c-0.7-0.2-0.9-0.4-1-0.7c-0.9,0-1.7-0.2-2.6-0.4c-3,1-3.9,1.6-3.9,1.6s-2.1,0.8-1.8,1.7C27.5,50.8,27.6,50.8,27.7,50.8"/>
		<path class="st0" d="M41.7,93.5c0.1,0,0.3,0.1,0.5,0.2c-0.1,0.1-0.1,0.2-0.2,0.3l0,0c0,0,1-0.9,1.7-1.1c0.2-0.1,0.4-0.1,0.6-0.2
			c0.1-0.2,0.2-0.5,0.1-0.8c-0.1-0.4-1-0.7-1.3,0.1c-6.3-4.1-15.5-15.6-20.8-24.3C24.7,75.5,32.9,87.4,41.7,93.5L41.7,93.5z
			 M38.8,90c-0.5-0.4-1-0.9-1.6-1.3c-0.6-0.5-1.1-1.1-1.6-1.7c-1.1-1.2-2.3-2.4-3.5-3.7c-1.1-1.3-2.1-2.7-3.1-4
			c-0.5-0.6-1-1.3-1.4-1.8c-0.4-0.6-0.7-1.2-1-1.8c-1.3-2.2-2.1-3.7-2.1-3.7s0.9,1.5,2.3,3.6c0.3,0.5,0.7,1.1,1.1,1.8
			c0.5,0.6,1,1.2,1.5,1.8c1,1.2,2.1,2.6,3.2,3.9c1.2,1.2,2.4,2.4,3.5,3.5c0.6,0.5,1.1,1.1,1.7,1.6c0.6,0.5,1.1,0.9,1.6,1.3
			c2,1.6,3.3,2.7,3.3,2.7l-0.6,0.7C42.1,92.8,40.8,91.7,38.8,90"/>
		<path class="st0" d="M71.9,85.5C71.9,85.6,71.9,85.6,71.9,85.5C72,85.6,72,85.5,71.9,85.5L71.9,85.5z"/>
		<path class="st0" d="M86.6,94.4c-0.2,0.3-0.6,1.2-1.1,1.4C85.3,96,85.1,96,84.9,96c-0.1,0-0.1,0-0.2,0c0,0.2-0.2,0.6-0.6,0.9
			c-0.5,0.3-1.1,0.5-1.4,0.5l0,0.1l-1.9-0.4l0.1-0.4l1.6,0.3c0-0.1,0.1-0.2,0.1-0.7c0-0.3-0.2-0.7-0.4-1L82,95.5
			c-0.1,0.2-0.4,0.6-0.9,0.6c-0.1,0-0.2,0-0.2,0c-0.4-0.1-0.7-0.4-0.9-0.6c-0.1,0.2-0.1,0.5-0.2,0.7c0,0.3,0.1,0.4,0.2,0.6
			c-0.3,0.4-0.5,0.8-0.9,1c-1.1,0.8-2.4,1.3-2.6,1.4c-0.6,0.3,0.8,0.2,1.1,0.3c0.4,0.1,0.4,0.2,0.8,0.3c0.3,0,1-0.8,2.1-1.7
			c0.1,0,0.1-0.1,0.2-0.2c0,0,0.1,0.1,0.1,0.1c0.6,0.2,1.2,0.1,1.7-0.1c0.4,0.1,0.8,0.3,1.4,0.4c1-0.1,1.4-0.6,1.7-1.2
			c0-0.2-0.2-0.3-0.4-0.5c0.1,0,0.1-0.1,0.2-0.1c0.2,0.1,0.4,0.1,0.6,0.2c0.7-0.3,1.1-0.7,1.1-1C87.4,95.2,87,94.8,86.6,94.4"/>
		<path class="st0" d="M77.5,90.1L77.5,90.1l0.4,0c-0.1-0.2-0.3-0.5-0.4-0.7c-0.3-0.3-0.6-0.6-0.6-0.6l0.2-0.4c0,0,0.8,0.5,1.3,0.6
			c0.3,0.1,0.7,0.3,0.9,0.4c0.1-0.2,0.3-0.5,0.1-0.7l0.1-0.1c-0.1-0.1-0.2-0.2-0.2-0.3c0.2,0,0.4,0,0.6-0.1c0.4-0.1,0.9-0.5,1.2-1.1
			c-0.8,0.3-1.7,0.2-2.6-0.2c-0.4-0.3-0.8-0.6-1.2-1c-0.5-0.6-1-1.3-1.4-2.2v0c-0.1-0.1-0.1-0.2-0.2-0.3c-0.4-0.7-0.7-1.5-1-2.3
			c0,0.2-0.1,0.3-0.1,0.5c0,0.2-0.1,0.4-0.3,0.5c-0.1,0-0.2,0.1-0.3,0.1c-0.3,0-0.6-0.1-1-0.3c-0.3-0.1-0.5-0.3-0.8-0.5
			c0.1,0.3,0.2,0.6,0.1,0.8c-0.1,0.7-0.7,1.1-0.9,1.2c0.2,0.4,0.4,0.8,0.4,0.8l0.4,1.2l-0.1,0c0.1,0.1,0.1,0.1,0.2,0.2
			c0,0,0,0.1,0,0.1c0,0.1,0,0.1,0,0.2c0,0.1,0,0.1,0,0.2c0,0.7,0.2,1,0.6,1c0.4,0,0.8,2.6,1.3,2.2c0.3,0.3,0.6,0.5,1,0.8
			c0.1-0.1,0.1-0.2,0.1-0.3c0,0,0-0.1,0-0.1c0-0.3,0-0.5-0.1-0.8C75.9,89.6,76.7,90,77.5,90.1"/>
		<path class="st0" d="M101.3,66.2c-0.1-0.2-1.2-1.6-2.5-2.6c-0.9-0.7-2.3-1.9-3.4-2.8c-0.7-0.6-1.2-1.1-1.5-1.3l-2.8-2.3
			c0,0,0,0,0,0.1c-0.1,0.2-0.4,0.2-0.7,0.3c-0.1,0-0.3,0-0.5,0.1c-0.2,0-0.5,0.1-0.7,0.1c-0.3,0-0.7,0-1-0.1l0.3,0.2
			c0.2,0.1,0.5,0.5,0.4,0.9c-0.1,0.1-0.2,0.2-0.3,0.3c0.7,0.6,2.5,2.1,3.4,2.9l5.4,4.7l-0.1,0.1c2,1.3,4.7,2.2,4.6,0.9
			C101.9,67.6,102,67.2,101.3,66.2L101.3,66.2z"/>
		<path class="st0" d="M97.8,93.2c-0.1,0-0.4-0.1-0.6-0.2c-0.2,0-0.3-0.1-0.5-0.2c-0.1,0-0.4-0.1-0.5-0.2c-0.2-0.2-0.5-0.3-0.7-0.5
			c-0.1-0.1-0.4-0.3-0.6-0.3c-0.1,0-0.4,0-0.5,0c-0.2-0.1-0.5,0-0.6-0.1c-0.2,0-0.3-0.1-0.5,0c-0.2,0-0.3,0-0.5,0
			c-0.2,0-0.4,0.1-0.6,0.1c-0.2,0-0.4,0-0.7,0c-0.2,0-0.3,0-0.4,0.1c0.3-0.2,0.6-0.5,0.7-0.8c0.2-0.4,0.5-0.9,0.4-1.4
			c0-0.1,0-0.2,0-0.4c0.1,0,0.3-0.1,0.3-0.1c0.2,0,0.9-0.3,1.1-0.3l-1.1,0.5c0.2,0.1,0.3,0.1,0.5,0.1c0,0,0.1,0,0.1,0
			c0.4,0,0.8,0,1.2-0.1c0.3-0.1,0.6-0.2,0.9-0.3c0.3-0.2,0.7-0.3,1-0.5c0.2-0.1,0.6-0.3,0.7-0.5c0.2-0.3,0.4-0.6,0.6-0.9
			c0.2-0.3,0.3-0.6,0.4-0.8c0-0.2,0.1-0.4,0.1-0.5c0.1-0.2,0.2-0.4,0.1-0.5c0-0.2,0-0.4,0-0.6c-0.1-0.3,0-0.7-0.1-1.1
			c-0.1-0.3-0.2-0.6-0.4-0.8c-0.3-0.4-0.7-0.8-1-1.2c-0.3-0.5-0.8-1-0.7-0.9c-0.2-0.1-0.3-0.1-0.4-0.2c-0.2-0.1-0.5-0.2-0.7-0.3
			c-0.1,0-0.1,0-0.2-0.1c-0.3-0.1-0.5-0.3-0.8-0.3c-0.2,0-0.8,0-1.1,0.1c-0.2,0.1-0.5,0.1-0.7,0.2c-0.2,0.1-0.4,0.1-0.6,0.3
			c-0.3,0.2-0.7,0.4-1,0.6c-0.4,0.2-0.7,0.4-1,0.7c-0.3,0.3-0.5,0.8-0.7,1.2c-0.2,0.2-0.2,0.6-0.4,0.8C88,84,88.1,84.2,88,84.4
			c0,0.1-0.1,0.5,0,0.7c0.1,0.2,0.2,0.5,0.2,0.7c0,0.3,0.2,0.5,0.3,0.7c0.1,0.2,0.2,0.6,0.4,0.8c0.1,0.1,0.2,0.4,0.3,0.5
			c0.1,0.2,0.3,0.3,0.4,0.4c0,0,0,0,0,0l-0.3-0.8c0,0,0.6,0.5,0.7,1c0.2,0.2,0.1,0.1,0.3,0.2c0.2,0.1,0.4,0.1,0.5,0.2
			c0-0.4,0.2-0.6,0.3-0.6L91,88.9c0,0,0,0,0.1,0c0.1,0,0.2,0.1,0.3,0.2c0,0.1-0.1,0.3-0.1,0.4c0,1.4-0.4,1.5-1.4,2.2
			c-0.2,0.1-0.4,0.2-0.5,0.3c-0.1-0.1-0.3-0.3-0.4-0.4c-0.2-0.2-0.2-0.2-0.3-0.4c-0.1-0.2-0.2-0.3-0.4-0.5c-0.1-0.1-0.2-0.3-0.4-0.5
			c-0.1-0.1-0.2-0.2-0.3-0.3c-0.1-0.2-0.3-0.2-0.4-0.3c-0.1-0.1-0.3-0.3-0.5-0.4c-0.1-0.1-0.3-0.2-0.4-0.3c-0.1-0.1-0.4-0.2-0.6-0.2
			c-0.3,0-0.6-0.1-0.8-0.1c-0.1,0-0.4-0.1-0.5-0.2c-0.2,0-0.3-0.1-0.5-0.2c-0.2-0.1-0.4-0.2-0.6-0.3c-0.1-0.1-0.3-0.2-0.4-0.3
			c0,0-0.1,0-0.1,0c0,0,0,0.2,0,0.4c0.1,0.1,0.1,0.3,0.2,0.4c0.1,0.2,0.2,0.3,0.3,0.5c0.1,0.1,0.2,0.2,0.3,0.3
			c0.1,0.1,0.3,0.3,0.4,0.3c0.2,0.1,0.3,0.3,0.4,0.4c0.1,0.1,0.2,0.1,0.3,0.2c0.1,0.1,0.2,0.2,0.4,0.3c0.3,0.1,0.5,0.3,0.8,0.3
			c0.2,0.1,0.4,0.1,0.7,0.1h0.1c0.2,0,0.4,0,0.6,0.1c0.2,0,0.3,0.1,0.4,0.2c0,0,0,0,0.1,0c0.2,0.1,0.4,0.2,0.5,0.2
			c0.1,0.1,0.3,0.1,0.4,0.2c0.1,0.1,0.3,0.2,0.4,0.3c0,0,0,0,0.1,0c-0.4,0.2-0.8,0.3-1.2,0.3c-0.5,0-0.9-0.1-1.3,0
			c-0.4,0-0.7,0-1,0.4c-0.2,0.2-0.4,0.4-0.5,0.7c-0.4-0.2-0.8-0.4-1.1-0.5c0.2,0.4,0.5,0.9,0.6,1.2c0.2,0.5,0.3,1.4,0.3,1.4
			c0,0,0.1,0,0.3-0.1c0.4-0.2,0.8-1,1-1.3c0,0-0.1,0-0.1-0.1c0.3-0.3,0.7-0.4,1-0.4c0.5-0.1,1.1-0.2,1.4-0.5
			c0.7-0.2,1.4-0.4,2.1-0.8l0,0c0.2,0,0.3,0,0.5,0c0.1,0,0.2,0.1,0.4,0.1c0.2,0.1,0.4,0.1,0.6,0.2c0,0,0.1,0,0.1,0
			c0.1,0,0.3,0.1,0.4,0.2c0.2,0.1,0.3,0.2,0.5,0.4c0,0,0,0,0,0c0.2,0.1,0.4,0.2,0.6,0.3c0.3,0.1,0.5,0.2,0.8,0.3
			c0.2,0,0.3,0,0.5,0.1c0.1,0,0.2,0.1,0.4,0c0.2,0,0.5-0.1,0.6,0c0.2,0,0.4,0.1,0.6,0.1c0.1,0,0.3,0,0.4,0c0.2-0.1,0.4-0.1,0.6-0.1
			c0.2-0.1,0.3-0.1,0.5-0.2c0.2-0.1,0.3-0.2,0.3-0.2c0,0-0.1,0-0.1-0.1C98.2,93.3,98,93.3,97.8,93.2 M90.5,88.7c0-0.1-0.1-0.6,0-0.6
			L90.5,88.7z M91.9,89.1C91.9,89.1,91.9,89.1,91.9,89.1l1-0.2C92.7,89,92.2,89.1,91.9,89.1 M94.2,88c-0.2,0.1-0.4,0.2-0.6,0.4
			c0,0-0.1,0-0.1,0c0-0.1,0-0.2,0-0.2c0-0.1,0.1-0.1,0.2-0.2c0.1-0.1,0.2-0.1,0.3-0.1c0.1,0,0.1,0.1,0.1,0.1l0.4-0.1
			C94.3,87.9,94.2,87.9,94.2,88 M95.3,81.9c0.2,0.3,0.3,0.7,0.4,1c0.1,0.2,0.1,0.4,0.1,0.5l-0.3-0.6c0,0,0,0-0.1,0l-0.2-0.3
			c0,0-0.1,0.1-0.2,0c-0.1,0-0.1-0.1-0.1-0.2c0,0,0-0.1,0-0.1c0,0,0.2-0.1,0.4-0.1L95.3,81.9z M94.6,80.7
			C94.6,80.8,94.6,80.8,94.6,80.7c0.2,0.2,0.3,0.4,0.4,0.6l-0.3-0.1c0,0,0,0,0,0.1c0,0,0,0-0.1-0.1c-0.1-0.1-0.1-0.2-0.1-0.3
			c0-0.1,0.1-0.1,0.1-0.1l-0.1-0.2C94.5,80.7,94.5,80.7,94.6,80.7 M94.3,80.6c-0.1,0.1-0.2,0.1-0.2,0.3
			C94.1,80.7,94.2,80.5,94.3,80.6 M94.1,80.9c0,0.1,0,0.1,0.1,0.2C94.1,81.1,94.1,81.1,94.1,80.9C94,81,94,80.9,94.1,80.9
			 M93.8,81.9c0-0.1,0-0.2,0-0.4c0.1-0.1,0.3-0.2,0.3-0.3c0,0.1,0,0.2,0.1,0.3c0.1,0.2,0.3,0.3,0.5,0.3c0,0,0,0,0.1,0
			c0.2,0,0.3-0.2,0.3-0.3c0,0,0,0.1,0,0.1c0,0,0.1,0.1,0.1,0.2c-0.2,0-0.6,0-0.8,0.3c0,0,0,0,0,0C94.3,82,94.3,82,94.2,82
			c0,0-0.1,0-0.1,0c-0.2,0.2-0.4,0.1-0.4,0.1l0.2-0.1C93.9,81.9,93.9,81.9,93.8,81.9 M93.5,84c0-0.1,0-0.2,0-0.3
			C93.5,83.8,93.5,84,93.5,84l0.3,0l0.2,0.1c0.1-0.2,0.1-0.7-0.4-0.9c0-0.2,0.1-0.4,0.1-0.5c0-0.1,0-0.2,0-0.4l0.1,0.1
			c0,0,0.1-0.1,0.2,0c0.1,0,0.1,0.1,0.1,0.2c0,0,0,0.1,0,0.1c0,0-0.2,0.1-0.4,0.1l0,0.5c0.1,0,0.6,0,0.8-0.2c0,0,0-0.1,0-0.1
			c0.1,0.1,0.2,0.1,0.2,0.2c0.1,0,0.1,0,0.2,0c0.1,0,0.2,0,0.2,0c-0.1,0.1-0.1,0.2-0.1,0.4c-0.2-0.1-0.3-0.1-0.6-0.1
			c-0.3,0.1-0.4,0.2-0.5,0.3c-0.1,0.3-0.1,0.5,0,0.6l0.4-0.1c0,0,0-0.1,0-0.2c0,0,0.1-0.1,0.2-0.1c0.2-0.1,0.3,0,0.3,0l0.3,0
			c0.2,0.1,0.4,0,0.5,0c0,0.3,0,0.5,0,0.8c0,0.2,0,0.5-0.1,0.8c-0.1,0-0.3-0.1-0.3-0.3c0-0.2,0.3-0.2,0.3-0.2v-0.2l0-0.2
			c-0.2,0-0.4,0.1-0.5,0.3c0-0.1,0-0.1-0.1-0.2c-0.1-0.1-0.2-0.2-0.5-0.2h0c-0.4,0-0.6,0.2-0.7,0.4c-0.2-0.1-0.4-0.1-0.4-0.1
			l0.1,0.4c0.1,0,0.1,0.1,0.1,0.2c0,0.1-0.2,0.1-0.3,0.1C93.4,84.9,93.5,84.3,93.5,84 M94,84.8l0.2,0c0,0,0.1-0.2,0.3-0.2h0
			c0.1,0,0.1,0,0.2,0.1c0,0,0.1,0.1,0.1,0.2c0,0,0.1,0.5-0.2,0.7c-0.1,0-0.1,0-0.1,0c-0.1,0-0.2-0.2-0.2-0.3L94,85.4c0,0,0,0,0,0
			c0.1-0.1,0.1-0.3,0.1-0.4C94.1,84.9,94,84.8,94,84.8 M93.4,85.7c0,0,0.2-0.1,0.4-0.2c0,0.1,0.2,0.4,0.5,0.5c0,0,0.1,0,0.2,0
			c0.1,0,0.2,0,0.3-0.1c0.2-0.1,0.3-0.3,0.3-0.5c0.1,0.1,0.3,0.2,0.4,0.3l0.1-0.2c-0.1,0.2-0.1,0.5-0.2,0.6c-0.2,0.3-0.3,0.7-0.5,1
			c-0.1,0.1-0.2,0.3-0.3,0.4l0.1-0.4c-0.1,0-0.3-0.1-0.3-0.2c0,0,0-0.1,0-0.2c0-0.1,0.1-0.2,0.2-0.2l0,0c0.1,0,0.2,0.1,0.2,0.1
			l0.3-0.3c0,0-0.3-0.2-0.6-0.2c-0.1,0-0.3,0.1-0.5,0.4c-0.1,0.1-0.1,0.2-0.1,0.3c0-0.2,0-0.3-0.1-0.4c-0.2-0.2-0.5-0.3-0.6-0.3
			c0-0.2,0-0.4,0-0.5L93.4,85.7z M93.3,86.7c0-0.1,0-0.2,0-0.3c0.1,0,0.2,0,0.2,0.1c0,0,0.1,0.1,0,0.2c0,0.1-0.2,0.1-0.3,0.1
			C93.3,86.9,93.3,86.8,93.3,86.7 M92.2,88.5c0.3-0.2,0.7-0.6,0.8-0.9c0-0.1,0-0.1,0-0.1c0.1-0.1,0.1-0.2,0.1-0.3l0,0.2
			c0,0,0.1,0,0.2,0c0.3,0,0.6-0.1,0.7-0.5c0,0.1,0,0.1,0,0.2c0.1,0.3,0.5,0.5,0.6,0.5c-0.1,0.1-0.2,0.2-0.3,0.3
			c0-0.1-0.1-0.3-0.3-0.3c-0.2-0.1-0.4,0-0.7,0.1C93.1,87.7,93,87.9,93,88c0,0.2,0,0.3,0,0.5c-0.2,0.1-0.4,0.1-0.5,0.1c0,0,0,0,0,0
			l0,0C92.4,88.6,92.3,88.6,92.2,88.5L92.2,88.5z M92.2,88.8L91.6,89c0.1-0.1,0.1-0.1,0.3-0.2C92,88.8,92.2,88.8,92.2,88.8
			 M91.7,88.4l-0.2,0.5C91.5,88.8,91.5,88.4,91.7,88.4 M92,89.6l-0.6-0.1C91.5,89.5,92,89.6,92,89.6 M91.9,89.8c0,0-0.4,0-0.4,0
			L91.9,89.8z M91.5,90.2c0.2-0.2,0.4,0,0.5-0.1L91.5,90.2C91.4,90.3,91.4,90.2,91.5,90.2 M89.3,92c-0.3-0.1-0.5-0.4-0.7-0.5l0,0
			l-0.4-0.3l0,0c-0.3-0.2-0.7-0.4-1-0.6l0,0l-0.5-0.3l-0.2-0.1l-0.2-0.1c-0.3-0.2-0.7-0.4-0.9-0.5l0,0l-0.7-0.3l0,0
			c-0.3-0.1-0.6-0.3-0.8-0.5l0,0c-0.1-0.1-0.2-0.2-0.3-0.4c0.1,0.1,0.3,0.2,0.4,0.3l0,0c0.3,0.1,0.6,0.2,0.9,0.3l0,0l0.7,0.2l0,0
			c0.5,0.1,0.7,0.3,1.1,0.4l0.1,0.1l0.2,0.1l0.2,0.2l0.4,0.3l0,0c0.3,0.3,0.6,0.5,0.9,0.7l0,0l0.3,0.3l0,0
			C88.9,91.6,89,91.8,89.3,92L89.3,92z M95.9,93.3L95.9,93.3l-1.4-0.4c-0.1,0-0.2,0-0.4-0.1l-0.2,0c0,0-0.1,0-0.1,0l-0.7-0.2l0,0
			c-0.4-0.1-0.9-0.1-1.3-0.2c-0.3-0.1-0.6-0.1-0.9-0.1c0.1,0,0.1-0.1,0.2-0.1c0.3,0,0.6-0.1,0.8,0c0.4,0,0.9,0.1,1.3,0.1h0h0h0
			l0.8,0.1c0.1,0,0.1,0,0.2,0l0.2,0c0.1,0,0.2,0.1,0.4,0.1l1.3,0.5l0,0c0.5,0.1,0.9,0.4,1.4,0.4C96.8,93.5,96.3,93.4,95.9,93.3"/>
		<path class="st0" d="M59.1,74.5L59.1,74.5c0.1,0,0.3-0.2,0.3-0.2c0,0,0.7-0.7,0.9-2.2c0.1-0.9,0.3-1.6,0.3-2
			c-0.4,0.2-0.8,0.3-1.2,0.4h-0.1c-0.2,0-0.4,0-0.6-0.1c0,0.3,0,0.8-0.2,1.6c0,0.5-0.1,1.8,0.3,2.2C58.8,74.4,59,74.5,59.1,74.5"/>
		<path class="st0" d="M58.8,101.2c0,0,0.8-0.9,1.7-2.6l-0.1,0c0,0,0.9-2.1,1.1-2.9c0.3-0.8,0.9-3.5,0.9-3.5l0,0c0-0.2,0-0.4,0-0.6
			c-0.1-0.6-0.2-1.3-0.3-1.9c0-0.1,0-0.2,0-0.3c-0.2,1-0.4,2.4-0.5,2.9c-0.1,0.8-0.6,2.7-0.7,2.8l-0.4-0.1c0,0,0.4-1.4,0.6-2.3
			C61.1,92.7,61,93,61,93.2c-0.5,1.5-1.5,3.4-1.8,4.1c0,0.7-0.1,1.6-0.3,1.9c-0.2,0.2-0.2,0.3-0.2,0.3h0.4c0,0-0.1,1.3-0.1,1.5
			L58.8,101.2z"/>
		<path class="st0" d="M56.1,85.7L56.1,85.7c0-0.1,0.3-1,0.5-1.6c0.2-0.4,0.3-0.9,0.4-1.1c-0.1-0.1-0.2-0.3-0.2-0.3l-0.5-1
			c-0.2,0.1-0.6,0.3-1,0.3c-0.1,0-0.2,0-0.3-0.1c-0.3-0.1-0.5-0.4-0.6-0.7c0,0,0,0.1,0,0.1c-0.5,0.8-1.1,1.4-1.5,2.1
			c0,0.1-0.1,0.2-0.1,0.3c0,0,0,0,0,0c-0.4,0.9-0.9,1.6-1.4,2.2c-0.4,0.4-0.8,0.7-1.2,1c-0.9,0.4-1.8,0.5-2.6,0.2
			c0.3,0.6,0.7,1,1.2,1.1c0.2,0.1,0.4,0.1,0.7,0l0.2,0c0,0,0,0.4,0.1,0.8l0,0l0,0l0.1,0c0.3-0.1,0.8-0.2,0.9-0.2
			c0.1-0.1,0.5-0.4,0.7-0.6l0.3,0.3c0,0-0.2,0.2-0.3,0.3l0,0c0,0-0.6,0.4-0.9,1c0,0.1,0,0.1,0,0.1c0,0,0.3,0,0.5-0.1l0,0.1
			c0.8-0.1,1.6-0.5,2.4-1.3c-0.1,0.3-0.1,0.5-0.1,0.8v0.1c0,0.1,0.1,0.2,0.1,0.3c0.4-0.2,0.7-0.5,1-0.8c0.5,0.5,0.9-2.2,1.3-2.2
			c0.4,0,0.6-0.3,0.6-1V86c0-0.1,0-0.1,0-0.2C56,85.7,56,85.7,56.1,85.7"/>
		<path class="st0" d="M58.5,97.4c0,0,1.4-2.5,2-4.4c0.6-1.9,1.5-5.5,1.5-5.5l0,0c0-0.8,0-1.5,0-2.2c-0.2,0.9-0.5,2-0.7,2.8
			c-0.5,1.7-1.9,5.7-1.9,5.8L59,93.7c0,0,1.4-4,1.9-5.8c0.4-1.2,0.8-3.1,1-4.1c-0.1,0-0.1,0.1-0.2,0.1h0c-0.2,0-0.4-0.1-0.4-0.2
			l-0.4-0.3l-0.6,2.8c-0.7,3.1-3.4,5.7-3.5,9.1c0.2,0.1,0.5,0.2,0.5,0.2s-0.3,2.2-0.6,2.5c-0.2,0.2-0.3,0.2-0.3,0.2l0.4,0.1
			c0,0-0.2,1.3-0.3,1.6l0,0.3C56.4,100.1,57.4,99.2,58.5,97.4L58.5,97.4z"/>
		<path class="st0" d="M60.8,102.3c0,0,0.4-0.5,0.9-1.4c0-0.4,0.3-1.5,0.4-1.9c0.3-0.6,0.7-1,0.8-1.1c0-0.7-0.1-1.4-0.2-2.2
			c0,0.2-0.1,0.3-0.1,0.4L62.3,96c0.1-0.5,0.4-1.9,0.4-1.9l0.1,0c0-0.2,0-0.4,0-0.6c-0.2,0.8-0.5,1.8-0.6,2.2
			c-0.3,0.8-1.1,2.8-1.1,2.9c0,0.6-0.1,1.3-0.2,1.5c-0.2,0.2-0.3,0.3-0.3,0.3l0.4,0c0,0,0,1.2,0,1.5V102.3z"/>
		<path class="st0" d="M71.8,85.6l-0.3-1.2c0,0-0.3-0.8-0.7-1.2c-0.2-0.3-0.6-0.7-1-1c0,0.6,0,1.2,0,1.2l0.2,1.4l-0.1,0
			c0.2,0.4,0.4,0.7,0.7,1.1c0,0.1,0.1,0.2,0.1,0.3c0,0.3-0.2,1.7,0.1,2.2c0.1-0.1,0.1-0.1,0.2-0.2c0,0.1,0,0.1,0,0.2
			c0.2-0.2,0.3-0.4,0.4-0.6c0,0,0,0,0-0.1l0,0C71.9,87,71.9,86.2,71.8,85.6L71.8,85.6z"/>
		<path class="st0" d="M68.4,98.9c-0.2-0.2-0.3-1.1-0.3-1.7L67,94.9l-0.1,1c0,0.9,0,1.5,0,1.5l-0.5,0c0,0-0.1-0.6,0-1.6l0.1-1.9
			c-0.2-0.7-0.7-1.9-1.1-3.1c0,0.1,0,0.2,0,0.2c0.1,0.3,0.2,1.2,0.2,1.2l-0.5,0.1c0,0-0.2-0.9-0.2-1.3c0-0.4-0.4-2.9-0.4-2.9l0.1,0
			c-0.1-0.9-0.2-2.2-0.3-3c-0.1,0.1-0.1,0.1-0.2,0.1c0,0.7,0,5.1,0.3,6.5c0.3,1.5,1.3,4,1.3,4l-0.4,0.2c0,0.2,0,0.4,0,0.6
			c0,0.5,0,1-0.1,1.4l0,0.1l0,0c-0.1,0.8-0.2,1.4-0.2,1.4l-0.3-0.1c0.3,0.6,0.5,0.9,0.5,0.9l-0.4,0.3c0,0-0.4-0.6-1.1-2.2
			c-0.3-0.7-0.5-1.7-0.7-2.6c0.1,2.1,0.3,3.8,0.3,3.9l-0.5,0c0,0,0-0.5-0.1-1.3c-0.1,0.2-0.3,0.4-0.4,0.6c-0.2,0.5-0.4,1.4-0.4,1.6
			c0.7,1.7,1.6,3.3,1.7,3.9c0,0,1-1.4,1.7-3.9c0.5,0.8,0.8,1.2,0.8,1.2v-0.3c0-0.3,0-1.5,0-1.5l0.4,0c0,0-0.1-0.1-0.2-0.3
			c-0.2-0.3-0.3-1.6-0.3-2.2c1,2.1,2.1,3.3,2.1,3.3s0,0,0-0.3c0-0.3-0.1-1.5-0.1-1.5h0.4C68.6,99.2,68.6,99.2,68.4,98.9"/>
		<path class="st0" d="M70.6,97.7c-0.3-0.3-0.6-2.5-0.6-2.5s0.3-0.1,0.5-0.2c-0.1-3.3-2.8-5.9-3.5-9l-0.5-2l-0.1,0.1
			c-0.1-0.1-0.6-0.8-0.8-1.1c0,0.2-0.1,0.4-0.1,0.7l0.1,0c0,0,0.4,4.4,1.8,7.8c1.5,3.4,2,4.4,2,4.4l-0.4,0.2c0,0-0.5-1-2-4.5
			c-1.1-2.5-1.6-5.6-1.8-7.1c0,0,0,0,0,0c-0.1,0.1-0.2,0.2-0.2,0.3c0,0.4,0.3,3.1,0.4,3.9c0.1,0.9,1.9,5.4,1.9,5.4l1.4,2.8
			c1.2,1.8,2.2,2.8,2.2,2.8l0-0.3c-0.1-0.3-0.3-1.6-0.3-1.6l0.4-0.1C70.8,97.9,70.8,97.9,70.6,97.7"/>
		<path class="st0" d="M80,51c-0.1,0-0.1,0.1-0.2,0.1c0.8,0.3,2,0.6,3.3,0.7c2.4,0.2,3.3-0.2,3.4-0.2l0,0l0,0c0,0,0.1-0.1,0.2-0.4
			c0-0.1,0-0.1,0-0.1c-0.1-0.1-0.2-0.1-0.3-0.1c0,0-0.1,0-0.1,0c-0.6,0-1.2,0-2-0.1c-1.7-0.2-3.2-0.7-3.7-0.8
			c0.3,0.2,0.5,0.4,0.5,0.5l0.2,0.3l-0.4,0C80.9,50.8,80.3,50.8,80,51"/>
		<path class="st0" d="M57.2,82.7c0,0,0,0,0.1,0c0.3-0.2,1-1.1,1.3-1.4c0-0.6-0.1-1.2-0.1-1.5c-0.1,0-0.2-0.1-0.3-0.3
			c-0.1,0.2-0.3,0.5-0.7,0.8c-0.5,0.6-0.9,1-1,1.1l0.6,1C57.1,82.6,57.2,82.7,57.2,82.7"/>
		<path class="st0" d="M56.1,81.3c0,0,0.5-0.4,1.1-1.2c0.6-0.7,0.8-1,0.8-1l0.1,0c-0.1-0.4-0.2-0.9-0.2-1.3
			c-0.5,0.7-1.4,1.5-1.8,1.8c-0.1,0.1-0.2,0.1-0.4,0.1c-0.1,0-0.1,0-0.2,0c-0.2-0.1-0.3-0.2-0.4-0.4c0,0,0,0,0,0.1
			c-0.3,0.4-0.4,0.9-0.6,1.4c0.1,0.2,0.3,0.7,0.6,0.8C55.3,81.6,55.9,81.4,56.1,81.3"/>
		<path class="st0" d="M60.4,82.8L60.4,82.8c0-0.1,0-1.1,0.1-1.5c0.1-0.2,0.2-0.5,0.3-0.7c-0.1,0-0.2,0-0.3-0.1
			c-0.3-0.2-0.5-0.9-0.6-1.5c-0.3,0.4-0.6,0.6-0.6,0.6c0,0-0.2,0.1-0.4,0.2c0,0.6,0.1,2.3,0.1,2.7c0,0.5-0.3,2.5-0.4,2.6l0,0
			c0,0.1,0,0.2,0,0.2C59.8,84.5,60.2,83.6,60.4,82.8"/>
		<path class="st0" d="M84.2,65.7c0,0,0-0.2-0.5-0.8l-5.1-4.3c-0.1,0-0.2,0.1-0.4,0.1c-0.4-0.1-0.6-0.4-0.6-0.4
			c-0.1-0.2-0.3-0.3-0.4-0.3l0,0c-0.1,0.1-0.2,0.5-0.3,0.9l0,0c0,0.1,0.1,0.2,0.1,0.2c0.2,0.1,0.7,0.4,1,0.8
			c0.4,0.5,2.8,2.7,2.8,2.7l0,0C82.5,65.6,84.5,66.5,84.2,65.7"/>
		<path class="st0" d="M89.1,67.1c0,0,0-0.3-0.6-1l-0.1,0.1c-0.2-0.3-3.5-3.2-4.6-4.1c-0.8-0.7-2.9-2.3-3.7-2.8
			c-0.1,0.1-0.2,0.1-0.4,0.2l-0.1,0c-0.2,0-0.3,0-0.5-0.1c0.1,0.3,0,0.6-0.2,0.9l5,4.2l0,0C85,65.8,89.6,68.4,89.1,67.1"/>
		<path class="st0" d="M77.9,65.1c0,0,0-0.5-1.4-2c-0.4,0.5-1,0.7-1.5,0.7C76.3,64.9,78.2,65.9,77.9,65.1"/>
		<path class="st0" d="M56.9,66.5L56.9,66.5c0-0.1,0.9-0.6,1.2-1.2c0.3-0.6,1.9-4.6,2.2-5.2c-0.1-0.3-0.1-0.7-0.1-1
			c-0.6,0.7-1.6,1.2-1.7,1.3l-4.3,3.1c0,0-0.1,0.1-0.3,0.2C53.5,65.5,55.4,66.9,56.9,66.5"/>
		<path class="st0" d="M53.5,63.8c-0.2,0.1-0.4,0.1-0.7,0.1c-0.3,0-0.8-0.1-1.2-0.3c-0.9,1.1-0.9,1.4-0.9,1.4
			C50.4,65.9,52.3,64.9,53.5,63.8"/>
		<path class="st0" d="M54.2,59.7c0.4,0.2,0.9,0.5,1.3,0.6c0.3,0.1,1.9-0.2,2.9-0.4c0,0,1.3-0.6,1.7-1.4c0.3-0.7,0.8-2.5,1-3.2
			c-0.5,0.4-1.7,1.1-2.5,1.2c-0.3,0-0.5,0.1-0.8,0.1c-0.1,0-0.2,0-0.3,0c0,0.1-0.7,1.2-1.5,2C55.4,59.1,54.7,59.5,54.2,59.7"/>
		<path class="st0" d="M61.9,69c0.1,0.2,0.6,2.3,2.7,1.9c0.7-0.1,1.3-0.4,1.5-0.9c0.3-0.5,0.2-1.1,0.2-1.1l-1.5-8.7
			c-0.2-0.4-0.4-0.8-0.5-1.2c-0.2,0.5-0.3,0.8-0.6,1.2c0,0-0.1,0.1-0.1,0.1l0,0l-1.5,8.2C62.1,68.5,62,68.7,61.9,69"/>
		<path class="st0" d="M55.8,74.5c0.1,0,0.1-0.1,0.1-0.1l0,0c0,0,1.8-1.4,2.1-2.5c0.4-1.1,0.2-1.7,0.2-1.7l0,0
			c-0.7-0.4-1.2-1-1.5-1.5c-0.9,2.2-1.3,3.8-1.3,3.8S55,74.1,55.8,74.5"/>
		<path class="st0" d="M51.4,63.5c-0.4-0.3-0.7-0.6-0.9-1l-2.3,2.2c-0.1,0.1-0.1,0.2-0.1,0.2C47.8,65.8,50.2,64.5,51.4,63.5"/>
		<path class="st0" d="M50.8,60.7c-0.1,0.2-0.5,1.8,0.8,2.5c1.4,0.7,2.1,0,2.2-0.1l3.5-2.5c-0.6,0.1-1.2,0.2-1.7,0.2
			c-0.2,0-0.3,0-0.4-0.1c-0.6-0.2-1.7-0.9-1.7-0.9l-0.4-0.3l0.5-0.1c0,0,1.3-0.4,2-1.1c0.1-0.1,0.1-0.2,0.2-0.2
			c-1.1,0.4-3,1.2-3.6,1.4C51.5,59.6,50.9,60.6,50.8,60.7"/>
		<path class="st0" d="M87,57.4L87,57.4c-0.2-0.1-0.4-0.1-0.6-0.2c-1.3-0.3-2-0.5-2.9-0.9c-0.8-0.3-2.7-1.1-2.8-1.2
			c-0.2,0-0.3,0-0.4,0c0.2,0.3,0.1,0.4,0.1,0.5c-0.1,0.2-0.4,0.2-0.7,0c0.1,0.2,0.1,0.3,0.1,0.5c0.6,0.3,2.7,1.2,4,1.6
			c1.4,0.5,3.1,0.8,4.3,0.8c0.3,0,0.4-0.1,0.4-0.1c0,0-0.1-0.2-0.3-0.3L87,57.4z"/>
		<path class="st0" d="M79.5,52.8c0.4,0.1,1.1,0.3,1.9,0.4c1.1,0.1,1.6,0.1,2.5,0c0.5-0.1,0.9-0.2,1.1-0.4h0c-0.6-0.2-0.9-0.5-1-0.5
			c-0.3,0-0.5,0-0.8,0c-1.6-0.1-2.9-0.5-3.7-0.8c0.2,0.3,0.4,0.6,0.3,0.9C79.6,52.4,79.6,52.6,79.5,52.8"/>
		<path class="st0" d="M80.9,49.6c0.6,0.2,2,0.6,3.4,0.8c0.8,0.1,1.4,0.1,2,0.1v0c0,0,0.1,0,0.1,0c0.7,0,1.3-0.1,2-0.2
			c0.8-0.2,1.2-0.4,1.4-0.5l0,0c-0.3-0.1-0.4-0.3-0.5-0.4c-0.6,0-2.5,0-3.4-0.2c-0.9-0.1-3.2-0.6-3.8-0.8c-0.1,0.1-0.2,0.2-0.4,0.2
			c-0.5,0.2-1.1,0.2-1.6,0.2c0.5,0.2,0.9,0.4,0.9,0.6C81,49.5,80.9,49.6,80.9,49.6"/>
		<path class="st0" d="M93.3,55.4c0-0.1-0.4-0.6-0.9-1L91,53.7l0,0c-0.2,0-0.3-0.1-0.6-0.2c-1-0.3-3.5-1.3-3.9-1.5
			c-0.2,0.1-0.7,0.2-1.6,0.2c0.1,0,0.1,0,0.2,0.1c0.4,0.1,0.4,0.3,0.4,0.4c0,0.3-0.4,0.5-0.8,0.6c0.9,0.4,2.7,1.2,3.6,1.4
			c0.2,0.1,0.4,0.1,0.6,0.2l0,0c0,0,0.1,0,0.1,0.1c0.1,0,0.3,0.1,0.5,0.1c0.6,0.2,1.1,0.4,1.8,0.4C92.5,55.8,93.2,55.6,93.3,55.4"/>
		<path class="st0" d="M73.5,54.4c-0.7,0.3-1.5,0.3-2.2,0.2c0,0.1,0.1,0.3,0.5,0.6c0.5,0.4,0.8,0.9,0.9,1l0.2,0.3l-0.3,0.1
			c0,0-0.1,0-0.3,0c0.1,0.3,0.4,0.7,0.7,1c0.4,0.3,1.4,0.7,1.8,0.9l0.4,0.1l-0.4,0.3c0,0,0,0,0,0l0.6,0.2c0.1,0,0.8,0.5,1.3,1.2
			c0.1-0.3,0.2-0.6,0.4-0.7c0.3-0.2,0.7,0.1,0.9,0.5c0,0.1,0.2,0.2,0.3,0.3c0.1,0,0.2,0,0.2-0.1c0.5-0.4-0.1-1.3-0.1-1.3l0.4-0.3
			c0.1,0.1,0.5,0.4,0.8,0.4c0,0,0,0,0,0l0.1,0c0,0,0,0,0.1,0c0,0,0-0.1,0-0.2l0-0.2c0-0.2-0.3-0.3-0.5-0.4l0.1-0.4
			c0,0,0.2,0,0.4-0.2c0,0-0.1-0.3-1.4-0.9c-0.4-0.2-0.6-0.5-0.7-0.5l0.3-0.4c0.6,0.3,1.1,0.5,1.2,0.4c0.1-0.2-0.3-0.7-0.6-1l0.3-0.4
			c0.2,0.1,0.5,0.3,0.7,0.4c0-0.1-0.1-0.1-0.1-0.2l-0.9-0.9l0.2-0.4c0,0,0.3,0.1,0.7,0c-0.1-0.2-0.4-0.7-0.8-1.1c0,0,0,0,0,0
			l0.3-0.3l0,0c0,0,0,0,0.1,0c0,0,0-0.1,0-0.2c0.1-0.5-0.8-1.2-1.1-1.4l0.2-0.4c0.5,0.2,1.2,0.3,1.4,0.2c0.2-0.2,0.5-0.2,0.7-0.3
			c-0.1-0.1-0.2-0.1-0.4-0.2c-0.1,0-0.2-0.1-0.4-0.1c-0.4,0-0.7,0-0.8,0l0-0.5c0,0,0.4-0.1,0.8,0c0.3,0,0.6-0.1,0.8-0.2
			c-0.3-0.2-1.1-0.4-1.7-0.5l0-0.4c0,0,0.2,0,0.4-0.1v0h0c0.2-0.1,0.4-0.2,0.5-0.3c0,0,0,0,0,0c0,0-0.3-0.1-0.5-0.1L78,47.7l0-0.4
			c0,0,0.9-0.1,1.3-0.2c-0.1,0-0.2-0.1-0.5-0.1c-1-0.2-1.4-0.2-1.4-0.2l0-0.5c0,0,0.5-0.1,1.2-0.3c-0.1,0-0.1,0-0.2-0.1l-1.1-0.1
			l0.1-0.5c0.7,0.1,1.2,0,1.3-0.1c-0.1,0-0.2-0.1-0.2-0.1L78,44.7l0.6-0.1c0.1,0,0.3-0.1,0.5,0.1c0,0,0,0,0,0.1
			c0.2,0.1,0.4,0.1,0.7,0.1c0.1,0,0.1,0,0.1,0l-0.7-0.4l0.2-0.4l1,0.6c0.9,0.5,2,1,2.3,0.9c0.1,0,0.1-0.1,0.1-0.1
			c0.1-0.2,0-0.5,0-0.6l-0.1-0.5l0.5,0.2c0,0,0.9,0.5,2.1,0.5c1.1,0,2.3-0.4,2.7-0.5c0.4-0.3,0.6-0.8,0.3-1.5
			c-1,0.6-2.9,1.3-4.1,0.5c-1.1-0.8-6-0.8-8.1-0.6c-3.2,0.6-4,3.6-3.3,5c0,1.2,1.3,2.3,2,3.4C75.7,52.5,75.3,53.8,73.5,54.4"/>
		<path class="st0" d="M80.2,57.4c0,0.1,0,0.2,0,0.3c-0.1,0.1-0.2,0.2-0.3,0.3c0.1,0.1,0.2,0.2,0.2,0.4c0.3,0.1,1.9,0.6,3.8,1
			c1.6,0.3,1.8,0.3,2.1,0.2c0.1,0,0.2,0,0.3-0.1c0,0,0,0,0,0c0-0.1-0.1-0.2-0.2-0.3l-0.6-0.5l0.1-0.1c-0.7-0.1-1.4-0.3-2.1-0.5
			c-1.3-0.4-3.6-1.4-4.1-1.7c0,0,0,0.1-0.1,0.1l0,0C79.9,57,80.2,57.2,80.2,57.4"/>
		<path class="st0" d="M88.5,44.8c-0.1,0-1.5,0.6-2.9,0.6v0.6c0,0.1,0,0.2-0.1,0.3c0.6,0.1,2.2,0.5,3.2,0.8c1,0.3,2.4,0.3,3.5,0.3
			l0.4,0c1,0,2.8-0.5,2.9-0.5l0,0.1c0.4-0.1,0.8-0.3,1.3-0.5c0.1-0.9-2.5-0.7-2.5-0.7S92.9,45.4,88.5,44.8L88.5,44.8z"/>
		<path class="st0" d="M91.8,47.9c-1,0-2.3,0-3.2-0.3c-1-0.3-3-0.8-3.3-0.8c-0.1,0.1-0.3,0.3-0.6,0.3c0,0,0,0-0.1,0
			c0.2,0.2,0.3,0.3,0.3,0.3l0.1,0.1l0,0.1c0,0.1-0.2,0.4-1.1,0.6c-0.2,0-0.4,0.1-0.6,0.1c-0.1,0-0.2,0-0.3,0
			c0.9,0.2,2.3,0.5,2.9,0.6c1,0.1,3.2,0.1,3.5,0.2c0.2-0.1,0.9-0.3,1.8-0.5c0.7-0.2,1.1-0.4,1.3-0.4l0-0.1l-0.2,0
			C92.1,47.9,91.9,47.9,91.8,47.9"/>
		<path class="st0" d="M68.7,50.3c-0.1,0-0.1,0-0.2,0c0,0.1-0.3,1-0.7,1.5c0.1,0.3,0.2,1,0,2c-0.1,0.3-0.2,0.6-0.3,0.8
			c0.2,0.2,1.1,0.9,2,1.2c0.7,0.3,1.9,0.2,2.5,0.1c-0.1-0.2-0.3-0.4-0.5-0.5c-0.6-0.4-0.6-0.8-0.6-0.9l0.2,0h0
			c-0.8-1.4-1.6-3.1-2.1-4.3C68.9,50.3,68.8,50.3,68.7,50.3"/>
		<path class="st0" d="M93.1,67.4c0,0,0-0.4-1.2-1.7l0,0c-0.2-0.1-3.9-3.2-4.6-3.8c-0.6-0.6-2.2-1.8-2.2-1.8l0,0
			c-0.3,0-0.7-0.1-1.2-0.2c-1.3-0.3-2.5-0.6-3.2-0.8c0.9,0.7,2.7,2,3.4,2.6c0.7,0.6,4.3,3.6,4.7,4.2C90.8,67.3,93.5,68.5,93.1,67.4"
			/>
		<path class="st0" d="M79.5,54.3l0.4,0.4c0.2,0,1.3,0.1,2.2,0c0.2,0,0.4,0,0.5,0c0.3,0,0.6,0,0.7-0.1c0,0,0-0.1-0.1-0.2
			c-0.4-0.5-1.7-0.8-2.2-0.9l0,0c-0.5-0.1-0.9-0.2-1.3-0.2c0.2,0.3,0.3,0.5,0.3,0.7c0,0.1-0.1,0.2-0.2,0.3
			C79.7,54.3,79.6,54.3,79.5,54.3"/>
		<path class="st0" d="M79.9,48.5c0.5,0,1.1-0.1,1.6-0.2c0.1,0,0.1-0.1,0.2-0.1c-0.1-0.1-0.3-0.2-0.4-0.3l-1.7-0.5
			c-0.1,0-0.2,0-0.3,0l0,0c0.2,0,0.7,0.1,0.9,0.4C80.1,48,80.1,48.2,79.9,48.5C79.9,48.5,79.9,48.5,79.9,48.5"/>
		<path class="st0" d="M78.8,46.4c-0.1,0-0.1,0-0.2,0.1c0.1,0,0.2,0,0.3,0.1c0.4,0.1,1,0.2,1,0.6c0,0,0,0,0,0l1.5,0.4
			c0.5,0.1,1.8,0.4,2.4,0.2c0.4-0.1,0.6-0.2,0.7-0.3c-0.1-0.1-0.3-0.3-0.7-0.4c-0.7-0.3-1.9-0.5-1.9-0.5l0.1-0.4
			c0.1,0,1.2,0.3,2,0.6c0,0,0.2,0,0.8,0c0.5,0,0.5-0.5,0.5-0.6l0-0.6c-0.7,0-1.4-0.2-1.7-0.3c0,0.2,0,0.4-0.1,0.5
			c-0.1,0.2-0.2,0.3-0.4,0.3c0,0-0.1,0-0.2,0c-0.6,0-1.8-0.6-2.3-0.8c-0.1,0.1-0.3,0.2-0.6,0.2c-0.2,0-0.5,0-0.7-0.1
			c0,0.1-0.1,0.2-0.2,0.3c0.2,0.1,0.3,0.2,0.3,0.4C79.2,46.2,78.9,46.3,78.8,46.4"/>
		<path class="st0" d="M99.3,80.2c-0.2-0.2-0.6-0.3-1-0.3c-0.4,0-0.6-0.1-0.6-0.2c-0.2-0.3-0.2-0.8-0.5-1.1
			c-0.2-0.3-0.4-0.5-0.7-0.7c-0.3-0.3-0.7,0-1.1,0.1c-0.3,0.1-0.6,0.3-0.9,0.4c-0.5,0.1-0.6-0.4-0.9-0.7c-0.2-0.3-0.5-0.5-0.8-0.6
			c-0.3-0.2-0.6-0.1-0.9-0.2c-0.3,0-1-0.1-0.7,0.2c0.1,0.2,0.6,0.7,0.9,0.9c0.4,0.2,0.6,0.7,0.7,1c0.1,0.3,0,0.6,0.1,0.9
			c0,0,0.3-0.2,0.7,0c-0.1-0.1,0,0,0-0.1c0-0.3,0-0.5,0-0.5l0.1,0c0,0,0.2,0.2,0.3,0.4c0.2,0.2,0.3,0.4,0.2,0.4
			c0.4,0.1,0.6,0.3,0.8,0.4c0.2,0.1,0.9,0.3,1,0.4c0.1,0.1,0.6,0.8,0.8,0.8c0.2,0.1,0.8-0.4,1-0.5c0.2,0.2,0.5-0.1,0.8-0.1
			c0.5,0,0.7,0.1,1,0C100.2,81,99.4,80.3,99.3,80.2 M96.1,79.7c-0.1,0.1-0.2,0.2-0.3,0.3c-0.1,0-0.2,0.1-0.2,0.2l-0.2,0.2
			c0,0-0.1-0.1-0.1-0.2c0-0.1,0-0.4,0.2-0.5c0.4-0.2,0.7-0.1,0.7-0.1C96.2,79.5,96.2,79.6,96.1,79.7 M97.5,80.7
			c-0.1,0.1-0.1,0.1-0.2,0.2c-0.1,0-0.3,0-0.4,0c-0.1,0-0.2-0.1-0.2-0.1s0-0.1,0.1-0.2c0.1-0.1,0.2-0.2,0.3-0.3c0.1,0,0.4,0,0.5,0
			c0.1,0,0.1,0.1,0.1,0.1S97.6,80.6,97.5,80.7"/>
	</g>
	<g>
		<g>
			<path class="st0" d="M148.1,101.3c-0.3,0.5-0.8,0.9-1.6,1.3c-0.8,0.4-1.7,0.6-3,0.6c-1.5,0-2.7-0.5-3.7-1.5c-1-1-1.5-2.3-1.5-3.8
				v-2.7c0-1.6,0.5-2.8,1.4-3.8c0.9-1,2.2-1.5,3.6-1.5c1.4,0,2.6,0.4,3.4,1.1c0.8,0.8,1.2,1.7,1.2,2.9l0,0.1h-1.7
				c0-0.8-0.3-1.4-0.8-2c-0.5-0.5-1.2-0.8-2.2-0.8c-1,0-1.8,0.4-2.4,1.1c-0.6,0.7-0.9,1.7-0.9,2.8v2.7c0,1.1,0.3,2.1,1,2.8
				c0.6,0.7,1.5,1.1,2.4,1.1c0.8,0,1.4-0.1,1.8-0.3c0.4-0.2,0.8-0.4,1-0.7v-2.9h-2.9v-1.4h4.7V101.3z"/>
			<path class="st0" d="M162.7,97.7c0,1.6-0.5,2.9-1.5,3.9c-1,1-2.2,1.6-3.8,1.6c-1.5,0-2.7-0.5-3.7-1.6c-0.9-1-1.4-2.4-1.4-3.9
				v-2.3c0-1.6,0.5-2.9,1.4-3.9c0.9-1,2.2-1.6,3.7-1.6c1.6,0,2.8,0.5,3.8,1.6c1,1,1.5,2.4,1.5,3.9V97.7z M161,95.4
				c0-1.2-0.3-2.2-1-2.9c-0.6-0.8-1.5-1.1-2.6-1.1c-1,0-1.8,0.4-2.4,1.1c-0.6,0.8-0.9,1.7-0.9,2.9v2.3c0,1.2,0.3,2.2,0.9,2.9
				c0.6,0.8,1.4,1.1,2.4,1.1c1.1,0,1.9-0.4,2.6-1.1c0.6-0.8,1-1.7,1-2.9V95.4z"/>
			<path class="st0" d="M166.9,103V90.1h4.2c1.3,0,2.4,0.3,3.2,0.9c0.8,0.6,1.1,1.5,1.1,2.6c0,0.6-0.2,1.1-0.5,1.5
				c-0.3,0.4-0.8,0.8-1.4,1c0.8,0.1,1.5,0.5,2,1.1c0.5,0.6,0.7,1.3,0.7,2.2c0,1.2-0.4,2.1-1.2,2.7c-0.8,0.6-1.8,0.9-3.1,0.9H166.9z
				 M168.7,95.6h2.8c0.7,0,1.2-0.2,1.6-0.5c0.4-0.4,0.6-0.9,0.6-1.5c0-0.7-0.2-1.2-0.7-1.6c-0.4-0.3-1.1-0.5-1.9-0.5h-2.5V95.6z
				 M168.7,97v4.7h3.4c0.8,0,1.4-0.2,1.9-0.6c0.4-0.4,0.7-0.9,0.7-1.7c0-0.7-0.2-1.3-0.7-1.7c-0.4-0.4-1.1-0.7-1.8-0.7H172H168.7z"
				/>
			<path class="st0" d="M187.2,97h-5.3v4.6h6.2v1.4h-8V90.1h7.9v1.4h-6.1v4.2h5.3V97z"/>
			<path class="st0" d="M193.7,97.4v5.6h-1.7V90.1h4.4c1.4,0,2.5,0.3,3.2,0.9c0.7,0.6,1.1,1.5,1.1,2.7c0,0.7-0.2,1.2-0.5,1.7
				c-0.3,0.5-0.9,0.9-1.5,1.2c0.7,0.2,1.2,0.6,1.5,1.1c0.3,0.5,0.5,1.2,0.5,1.9v1.2c0,0.4,0,0.8,0.1,1.1s0.2,0.6,0.5,0.8v0.2h-1.8
				c-0.2-0.2-0.4-0.5-0.4-0.9c-0.1-0.4-0.1-0.8-0.1-1.2v-1.2c0-0.7-0.2-1.3-0.6-1.7c-0.4-0.4-1-0.6-1.6-0.6H193.7z M193.7,96.1h2.5
				c1,0,1.7-0.2,2.1-0.6c0.4-0.4,0.7-0.9,0.7-1.7c0-0.7-0.2-1.3-0.6-1.7c-0.4-0.4-1.1-0.6-2-0.6h-2.7V96.1z"/>
			<path class="st0" d="M215,103h-1.7l-6.2-9.9l-0.1,0v9.8h-1.7V90.1h1.7l6.2,9.9l0.1,0v-9.8h1.7V103z"/>
			<path class="st0" d="M226.5,99.7h-4.9l-1.2,3.3h-1.8l4.7-12.9h1.5l4.6,12.9h-1.8L226.5,99.7z M222.2,98.2h3.9l-1.9-5.5h-0.1
				L222.2,98.2z"/>
			<path class="st0" d="M242.2,98.9L242.2,98.9c0,1.3-0.4,2.3-1.3,3.1c-0.9,0.8-2,1.2-3.5,1.2c-1.5,0-2.7-0.5-3.6-1.6
				c-0.9-1-1.4-2.3-1.4-3.9v-2.3c0-1.6,0.5-2.9,1.4-3.9s2.1-1.6,3.6-1.6c1.5,0,2.6,0.4,3.5,1.2c0.9,0.8,1.3,1.8,1.3,3.1l0,0.1h-1.7
				c0-0.9-0.3-1.6-0.8-2.1c-0.5-0.5-1.3-0.8-2.3-0.8c-1,0-1.8,0.4-2.3,1.2c-0.6,0.8-0.9,1.8-0.9,2.9v2.3c0,1.2,0.3,2.2,0.9,2.9
				c0.6,0.8,1.4,1.2,2.3,1.2c1,0,1.7-0.3,2.3-0.8c0.5-0.5,0.8-1.2,0.8-2.2H242.2z"/>
			<path class="st0" d="M248.1,103h-1.8V90.1h1.8V103z"/>
			<path class="st0" d="M262.9,97.7c0,1.6-0.5,2.9-1.5,3.9c-1,1-2.2,1.6-3.8,1.6c-1.5,0-2.7-0.5-3.7-1.6c-0.9-1-1.4-2.4-1.4-3.9
				v-2.3c0-1.6,0.5-2.9,1.4-3.9c0.9-1,2.2-1.6,3.7-1.6c1.6,0,2.8,0.5,3.8,1.6c1,1,1.5,2.4,1.5,3.9V97.7z M261.1,95.4
				c0-1.2-0.3-2.2-1-2.9c-0.6-0.8-1.5-1.1-2.6-1.1c-1,0-1.8,0.4-2.4,1.1c-0.6,0.8-0.9,1.7-0.9,2.9v2.3c0,1.2,0.3,2.2,0.9,2.9
				c0.6,0.8,1.4,1.1,2.4,1.1c1.1,0,1.9-0.4,2.6-1.1c0.6-0.8,1-1.7,1-2.9V95.4z M258.5,86.3h2l0,0.1l-2.4,2.3h-1.3L258.5,86.3z"/>
			<path class="st0" d="M276.9,103h-1.7l-6.2-9.9l-0.1,0v9.8h-1.7V90.1h1.7l6.2,9.9l0.1,0v-9.8h1.7V103z"/>
			<path class="st0" d="M287.8,103V90.1h4.1c1.7,0,3,0.5,4.1,1.6c1,1,1.5,2.4,1.5,4v1.8c0,1.6-0.5,3-1.5,4c-1,1-2.4,1.5-4.1,1.5
				H287.8z M289.6,91.5v10.2h2.3c1.2,0,2.1-0.4,2.8-1.2c0.7-0.8,1-1.8,1-3v-1.8c0-1.2-0.3-2.2-1-3c-0.7-0.8-1.6-1.2-2.8-1.2H289.6z"
				/>
			<path class="st0" d="M308.9,97h-5.3v4.6h6.2v1.4h-8V90.1h7.9v1.4h-6.1v4.2h5.3V97z"/>
			<path class="st0" d="M329,98.9L329,98.9c0,1.3-0.4,2.3-1.3,3.1c-0.9,0.8-2,1.2-3.5,1.2c-1.5,0-2.6-0.5-3.6-1.6
				c-0.9-1-1.4-2.3-1.4-3.9v-2.3c0-1.6,0.5-2.9,1.4-3.9s2.1-1.6,3.6-1.6s2.6,0.4,3.5,1.2c0.9,0.8,1.3,1.8,1.3,3.1l0,0.1h-1.7
				c0-0.9-0.3-1.6-0.8-2.1c-0.5-0.5-1.3-0.8-2.3-0.8c-1,0-1.8,0.4-2.3,1.2c-0.6,0.8-0.9,1.8-0.9,2.9v2.3c0,1.2,0.3,2.2,0.9,2.9
				c0.6,0.8,1.4,1.2,2.3,1.2c1,0,1.7-0.3,2.3-0.8c0.5-0.5,0.8-1.2,0.8-2.2H329z"/>
			<path class="st0" d="M342.5,90.1v8.6c0,1.4-0.5,2.5-1.4,3.3c-0.9,0.8-2.1,1.2-3.6,1.2c-1.4,0-2.5-0.4-3.4-1.2
				c-0.9-0.8-1.3-1.9-1.3-3.3v-8.6h1.7v8.6c0,1,0.3,1.8,0.8,2.3c0.6,0.6,1.3,0.8,2.2,0.8c0.9,0,1.7-0.3,2.3-0.8
				c0.6-0.6,0.9-1.3,0.9-2.3v-8.6H342.5z"/>
			<path class="st0" d="M356.8,103H355l-6.2-9.9l-0.1,0v9.8H347V90.1h1.7l6.2,9.9l0.1,0v-9.8h1.7V103z"/>
			<path class="st0" d="M361.5,103V90.1h4.1c1.7,0,3,0.5,4.1,1.6c1,1,1.5,2.4,1.5,4v1.8c0,1.6-0.5,3-1.5,4c-1,1-2.4,1.5-4.1,1.5
				H361.5z M363.2,91.5v10.2h2.3c1.2,0,2.1-0.4,2.8-1.2c0.7-0.8,1-1.8,1-3v-1.8c0-1.2-0.3-2.2-1-3c-0.7-0.8-1.6-1.2-2.8-1.2H363.2z"
				/>
			<path class="st0" d="M377.4,103h-1.8V90.1h1.8V103z"/>
			<path class="st0" d="M392.1,103h-1.7l-6.2-9.9l-0.1,0v9.8h-1.7V90.1h1.7l6.2,9.9l0.1,0v-9.8h1.7V103z"/>
			<path class="st0" d="M403.7,99.7h-4.9l-1.2,3.3h-1.8l4.7-12.9h1.5l4.6,12.9h-1.8L403.7,99.7z M399.3,98.2h3.9l-1.9-5.5h-0.1
				L399.3,98.2z"/>
			<path class="st0" d="M416.6,100.6L416.6,100.6l4.2-10.5h2.2V103h-1.7v-9.7l-0.1,0l-3.9,9.7H416l-4-10l-0.1,0v10h-1.7V90.1h2.3
				L416.6,100.6z"/>
			<path class="st0" d="M434.5,99.7h-4.9l-1.2,3.3h-1.8l4.7-12.9h1.5l4.6,12.9h-1.8L434.5,99.7z M430.2,98.2h3.9l-1.9-5.5h-0.1
				L430.2,98.2z"/>
			<path class="st0" d="M442.8,97.4v5.6H441V90.1h4.4c1.4,0,2.5,0.3,3.2,0.9c0.7,0.6,1.1,1.5,1.1,2.7c0,0.7-0.2,1.2-0.5,1.7
				c-0.3,0.5-0.8,0.9-1.5,1.2c0.7,0.2,1.2,0.6,1.5,1.1c0.3,0.5,0.5,1.2,0.5,1.9v1.2c0,0.4,0,0.8,0.1,1.1c0.1,0.3,0.2,0.6,0.5,0.8
				v0.2h-1.8c-0.2-0.2-0.4-0.5-0.4-0.9s-0.1-0.8-0.1-1.2v-1.2c0-0.7-0.2-1.3-0.6-1.7c-0.4-0.4-1-0.6-1.6-0.6H442.8z M442.8,96.1h2.5
				c1,0,1.7-0.2,2.1-0.6c0.4-0.4,0.7-0.9,0.7-1.7c0-0.7-0.2-1.3-0.6-1.7c-0.4-0.4-1.1-0.6-2-0.6h-2.7V96.1z"/>
			<path class="st0" d="M463.5,98.9L463.5,98.9c0,1.3-0.4,2.3-1.3,3.1c-0.9,0.8-2,1.2-3.5,1.2c-1.5,0-2.6-0.5-3.6-1.6
				c-0.9-1-1.4-2.3-1.4-3.9v-2.3c0-1.6,0.5-2.9,1.4-3.9s2.1-1.6,3.6-1.6s2.6,0.4,3.5,1.2c0.9,0.8,1.3,1.8,1.3,3.1l0,0.1h-1.7
				c0-0.9-0.3-1.6-0.8-2.1c-0.5-0.5-1.3-0.8-2.3-0.8c-1,0-1.8,0.4-2.3,1.2c-0.6,0.8-0.9,1.8-0.9,2.9v2.3c0,1.2,0.3,2.2,0.9,2.9
				c0.6,0.8,1.4,1.2,2.3,1.2c1,0,1.7-0.3,2.3-0.8c0.5-0.5,0.8-1.2,0.8-2.2H463.5z"/>
			<path class="st0" d="M474.2,99.7h-4.9l-1.2,3.3h-1.8l4.7-12.9h1.5l4.6,12.9h-1.8L474.2,99.7z M469.8,98.2h3.9l-1.9-5.5h-0.1
				L469.8,98.2z"/>
		</g>
		<g>
			<path class="st0" d="M166.7,61.8c0-1.8-0.6-3.1-1.7-4.1c-1.2-0.9-3.3-1.9-6.3-3c-6.1-2-10.7-4.1-13.7-6.4c-3-2.3-4.5-5.5-4.5-9.8
				c0-4.2,1.7-7.5,5.2-10.1c3.5-2.6,7.9-3.8,13.2-3.8c5.6,0,10.2,1.3,13.6,4c3.4,2.6,5.1,6.4,5,11.2l-0.1,0.2h-11.2
				c0-2.3-0.6-4-1.9-5.1c-1.3-1.1-3.2-1.6-5.8-1.6c-2.1,0-3.7,0.5-4.9,1.5c-1.2,1-1.8,2.3-1.8,3.8c0,1.5,0.6,2.6,1.9,3.5
				s3.5,2,6.9,3.3c5.7,1.7,10.1,3.8,13,6.2c2.9,2.4,4.4,5.8,4.4,10.1c0,4.4-1.7,7.8-5.1,10.2c-3.4,2.5-7.9,3.7-13.5,3.7
				c-5.6,0-10.4-1.3-14.2-4c-3.9-2.6-5.8-6.8-5.7-12.5l0.1-0.2h11.2c0,2.9,0.7,4.9,2.1,6.1c1.4,1.2,3.6,1.8,6.5,1.8
				c2.4,0,4.2-0.5,5.4-1.4C166.1,64.6,166.7,63.4,166.7,61.8z"/>
			<path class="st0" d="M213.4,53.8H196v12.4h20.9V75h-32.4V25.4h32.5v8.8h-21v10.7h17.5V53.8z"/>
			<path class="st0" d="M261.4,58.3l0.1,0.2c0.1,5.6-1.5,9.9-4.8,12.8c-3.3,2.9-7.9,4.4-13.9,4.4c-6.1,0-11-1.9-14.8-5.6
				c-3.7-3.7-5.6-8.6-5.6-14.7V45c0-6,1.8-10.9,5.4-14.7s8.3-5.6,14.2-5.6c6.3,0,11.1,1.5,14.6,4.4c3.4,2.9,5.1,7.2,5,12.8l-0.1,0.2
				h-11.2c0-3-0.6-5.2-1.9-6.5c-1.3-1.3-3.4-2-6.4-2c-2.6,0-4.6,1-6,3.1c-1.4,2.1-2.1,4.8-2.1,8.3v10.4c0,3.5,0.8,6.3,2.3,8.3
				c1.5,2.1,3.7,3.1,6.5,3.1c2.6,0,4.5-0.7,5.7-2c1.2-1.3,1.8-3.5,1.8-6.6H261.4z"/>
			<path class="st0" d="M296.1,62.5c0-2.2-0.8-4.1-2.4-5.6c-1.6-1.5-4.4-2.8-8.5-3.9c-5-1.2-9-3.1-11.8-5.5
				c-2.8-2.4-4.2-5.5-4.2-9.2c0-3.9,1.5-7.1,4.6-9.7c3-2.6,7-3.9,11.8-3.9c5.2,0,9.4,1.5,12.5,4.4s4.6,6.4,4.5,10.4l-0.1,0.2H296
				c0-2.8-1-5.1-2.9-7c-2-1.8-4.5-2.8-7.5-2.8c-3.1,0-5.5,0.8-7.2,2.3c-1.7,1.5-2.5,3.5-2.5,5.9c0,2.2,0.9,4,2.7,5.4
				c1.8,1.4,4.8,2.7,8.9,3.8c5,1.3,8.8,3.2,11.4,5.7c2.6,2.5,3.9,5.6,3.9,9.3c0,4-1.6,7.2-4.7,9.6c-3.1,2.4-7.2,3.6-12.3,3.6
				c-4.8,0-9-1.3-12.7-4c-3.7-2.7-5.4-6.3-5.3-10.8l0.1-0.2h6.4c0,3.1,1.2,5.5,3.5,7.2c2.4,1.7,5,2.5,8,2.5c3.2,0,5.7-0.7,7.5-2.1
				C295.2,66.9,296.1,64.9,296.1,62.5z"/>
			<path class="st0" d="M337.9,62.2h-18.6L314.8,75H308l17.9-49.5h5.8L349.1,75h-6.8L337.9,62.2z M321.2,56.6H336l-7.2-21.3h-0.2
				L321.2,56.6z"/>
			<path class="st0" d="M363.1,69.7h24.2V75h-30.9V25.4h6.7V69.7z"/>
			<path class="st0" d="M429.4,25.4v32.9c0,5.4-1.8,9.7-5.3,12.8c-3.5,3.1-8.1,4.6-13.7,4.6c-5.4,0-9.8-1.5-13.2-4.6
				c-3.4-3.1-5.1-7.3-5.1-12.7V25.4h6.7v32.9c0,3.8,1.1,6.8,3.2,8.9c2.2,2.1,5,3.2,8.4,3.2c3.6,0,6.6-1.1,8.9-3.2
				c2.3-2.1,3.4-5.1,3.4-8.9V25.4H429.4z"/>
			<path class="st0" d="M440,75V25.4h15.6c6.5,0,11.7,2,15.6,6c3.9,4,5.9,9.1,5.9,15.4v6.8c0,6.3-2,11.5-5.9,15.4
				c-3.9,4-9.1,5.9-15.6,5.9H440z M446.7,30.7v39h8.9c4.6,0,8.2-1.5,10.8-4.5c2.6-3,4-6.9,4-11.6v-6.8c0-4.7-1.3-8.5-4-11.5
				c-2.6-3-6.3-4.5-10.8-4.5H446.7z"/>
		</g>
	</g>
</g>
</svg>
